<?xml version="1.0" encoding="UTF-8"?>
<svg version="1.1" xmlns="http://www.w3.org/2000/svg" width="500" height="500">
<path d="M0 0 C1.81459167 1.70874049 3.16416723 3.41316085 4.58984375 5.44921875 C7.16292565 8.27889607 10.3342496 8.43117666 14 9 C14 9.99 14 10.98 14 12 C11.36 12.33 8.72 12.66 6 13 C6.17917969 13.83144531 6.35835937 14.66289063 6.54296875 15.51953125 C6.75566406 16.60621094 6.96835937 17.69289063 7.1875 18.8125 C7.40792969 19.89144531 7.62835938 20.97039062 7.85546875 22.08203125 C8 25 8 25 6.6484375 26.6953125 C6.10445312 27.12585938 5.56046875 27.55640625 5 28 C3.98377342 29.99180409 2.98287008 31.99152635 2 34 C-0.35953094 36.35953094 -1.77895617 36.49141413 -5 37 C-5.33516593 41.88905081 -4.43895554 44.77227143 -2.125 49.0625 C1.94004414 56.69182197 1.94004414 56.69182197 3 60 C2.67 60.99 2.34 61.98 2 63 C1.855625 63.680625 1.71125 64.36125 1.5625 65.0625 C1 67 1 67 -1 69 C-1.33 71.31 -1.66 73.62 -2 76 C3.28 75.01 8.56 74.02 14 73 C14 70.36 14 67.72 14 65 C14.33 64.67 14.66 64.34 15 64 C15.36760731 61.67182036 15.70241581 59.3381615 16 57 C18.3125 56.3125 18.3125 56.3125 21 56 C22.8125 57.25 22.8125 57.25 24 59 C24 59.99 24 60.98 24 62 C24.99 62.33 25.98 62.66 27 63 C27.0825 63.78375 27.165 64.5675 27.25 65.375 C27.70849401 68.1446618 27.70849401 68.1446618 30 69.125 C30.66 69.41375 31.32 69.7025 32 70 C33.73402586 75.20207758 33.64582277 79.4556412 31.5625 84.4375 C30 87 30 87 29 88 C25.08964599 88.27469429 21.23146208 88.33039227 17.4375 87.3125 C14.2135316 86.89917072 12.11457823 87.86963339 9.16015625 89.11328125 C6.4819689 90.21264568 3.75184898 91.103594 1 92 C1.05329468 92.93066284 1.05329468 92.93066284 1.10766602 93.88012695 C1.26525147 96.69062008 1.41397433 99.50151416 1.5625 102.3125 C1.61857422 103.28896484 1.67464844 104.26542969 1.73242188 105.27148438 C1.80493164 106.67817383 1.80493164 106.67817383 1.87890625 108.11328125 C1.9260376 108.97735596 1.97316895 109.84143066 2.02172852 110.73168945 C2 113 2 113 1 116 C-1.0625 116.6875 -1.0625 116.6875 -3 117 C-0.61489255 126.0074449 2.20479799 134.47044429 6 143 C9.96671473 151.92510814 13.77041731 160.882021 15 170.625 C15.85195462 177.32595074 18.20159304 182.90090791 21 189 C21.32742188 189.84175781 21.65484375 190.68351563 21.9921875 191.55078125 C23.36348047 194.88334208 25.16784241 197.9013475 26.9765625 201.01171875 C28 203 28 203 28 205 C33.64543627 205.63102681 39.23954259 206.0462381 44.921875 205.9609375 C45.77031982 205.94869141 46.61876465 205.93644531 47.49291992 205.92382812 C49.19130417 205.89155479 50.88949576 205.8462099 52.5871582 205.78710938 C53.76797974 205.76487305 53.76797974 205.76487305 54.97265625 205.7421875 C55.67656494 205.7201123 56.38047363 205.69803711 57.10571289 205.67529297 C59.60151244 206.10310756 60.48340057 207.01059765 62 209 C61.88384236 213.41399022 60.01863663 215.90396243 57 219 C54.36 220.65 51.72 222.3 49 224 C67.15 224.66 85.3 225.32 104 226 C104 227.65 104 229.3 104 231 C100.45228817 232.77385592 96.12152152 232.03353145 92.20507812 231.9609375 C87.70954689 231.9105674 83.43039033 232.10834912 79 233 C76.74800426 235.25199574 76.47109773 236.35060221 75.703125 239.3828125 C75.46964355 240.29087646 75.23616211 241.19894043 74.99560547 242.13452148 C74.74955566 243.12137939 74.50350586 244.1082373 74.25 245.125 C73.98977051 246.14601807 73.72954102 247.16703613 73.46142578 248.21899414 C72.63331966 251.47745496 71.81575606 254.7384273 71 258 C70.47145952 260.10028693 69.94281556 262.20054783 69.4140625 264.30078125 C68.15904948 269.29751918 66.91434127 274.29676239 65.67285156 279.296875 C65.05419059 281.78229383 64.43086846 284.26646671 63.8046875 286.75 C62.10834543 293.48126213 60.45460735 300.21183238 59 307 C55.09519751 308.35862973 51.2898224 307.89469712 47.25 307.5625 C46.55261719 307.51029297 45.85523438 307.45808594 45.13671875 307.40429688 C43.42403797 307.27525928 41.71194934 307.13840386 40 307 C38.85966683 303.45229682 38.85966683 303.45229682 39.54296875 301.25 C40.26512798 297.69475458 39.18004826 294.4515156 38.3125 291 C38.13041992 290.25049072 37.94833984 289.50098145 37.76074219 288.72875977 C36.17798464 282.36990238 34.23201157 276.16177661 32 270 C26.96894325 279.7166332 24.56144292 290.92465502 23.4375 301.75 C23 305 23 305 21 307 C18.32264032 307.36125419 15.75160063 307.60336479 13.0625 307.75 C12.33353516 307.80542969 11.60457031 307.86085938 10.85351562 307.91796875 C6.9579345 308.15363177 5.33246413 308.22164275 2 306 C1.95233009 303.66715366 1.96300432 301.33304003 2 299 C1.51072095 295.9354531 0.75519456 292.94624911 0 289.9375 C-0.21640137 289.0513501 -0.43280273 288.1652002 -0.65576172 287.25219727 C-3.61790364 275.2724984 -6.87025175 263.36480087 -10.09082031 251.45263672 C-11.23100562 247.12274934 -12.27201922 242.77175334 -13.28466797 238.41040039 C-13.93851856 235.77257964 -13.93851856 235.77257964 -16 233 C-18.42521494 232.41810734 -18.42521494 232.41810734 -21.125 232.3125 C-22.49011719 232.21388672 -22.49011719 232.21388672 -23.8828125 232.11328125 C-24.58148438 232.07589844 -25.28015625 232.03851563 -26 232 C-27.63472112 236.90416335 -27.3940273 241.98468001 -27.5625 247.125 C-27.6049585 248.36789795 -27.64741699 249.6107959 -27.69116211 250.89135742 C-28.25628458 268.91988878 -28.08663497 286.96526406 -28 305 C-27.21302734 305.30180176 -26.42605469 305.60360352 -25.61523438 305.91455078 C-23.05695061 306.97636273 -21.52922244 308.02764183 -19.5 309.875 C-18.89671875 310.4009375 -18.2934375 310.926875 -17.671875 311.46875 C-16.31121648 312.71496061 -15.01896482 314.03553713 -13.75 315.375 C-9.37039826 317.96294648 -4.95839411 317.63625411 0 317 C3.25058324 315.58376759 3.25058324 315.58376759 6 314 C9.375 313.8125 9.375 313.8125 12 314 C12.65234375 315.734375 12.65234375 315.734375 13 318 C12.00390625 320.140625 12.00390625 320.140625 10.5625 322.25 C9.85287109 323.30960937 9.85287109 323.30960937 9.12890625 324.390625 C8.75636719 324.92171875 8.38382813 325.4528125 8 326 C10.64 326.66 13.28 327.32 16 328 C16 329.32 16 330.64 16 332 C13.69 332 11.38 332 9 332 C9.08378906 333.00160156 9.16757812 334.00320313 9.25390625 335.03515625 C9.35716912 336.37757359 9.46001121 337.72002334 9.5625 339.0625 C9.66691406 340.37347656 9.77132812 341.68445313 9.87890625 343.03515625 C9.99765619 346.92325897 9.66866216 350.19110223 9 354 C7.34385343 354.38218767 5.67542976 354.71395102 4 355 C3 354 3 354 2.88647461 351.86694336 C2.89171143 350.95050049 2.89694824 350.03405762 2.90234375 349.08984375 C2.90556641 348.10048828 2.90878906 347.11113281 2.91210938 346.09179688 C2.92048828 345.05087891 2.92886719 344.00996094 2.9375 342.9375 C2.94201172 341.89271484 2.94652344 340.84792969 2.95117188 339.77148438 C2.96300087 337.1809334 2.97948311 334.59049441 3 332 C1.02 332 -0.96 332 -3 332 C-3.33 331.01 -3.66 330.02 -4 329 C-8.29 329 -12.58 329 -17 329 C-16.79375 330.093125 -16.5875 331.18625 -16.375 332.3125 C-16 336 -16 336 -18 339 C-18.99 339 -19.98 339 -21 339 C-20.030625 339.268125 -19.06125 339.53625 -18.0625 339.8125 C-17.051875 340.204375 -16.04125 340.59625 -15 341 C-13.90341064 344.28976808 -14.20046862 345.71303767 -15 349 C-14.34 349 -13.68 349 -13 349 C-12.375 350.875 -12.375 350.875 -12 353 C-14.92980811 355.92980811 -18.01844476 355.36810632 -21.9375 355.375 C-22.66646484 355.39949219 -23.39542969 355.42398437 -24.14648438 355.44921875 C-29.46462386 355.47846608 -29.46462386 355.47846608 -31.984375 353.2265625 C-33.56471674 349.76196715 -33.47938997 346.73460253 -33 343 C-32.34870203 341.65909241 -31.68486725 340.32407669 -31 339 C-31.165 338.195625 -31.33 337.39125 -31.5 336.5625 C-32.12104157 333.37966193 -31.30179982 331.90990547 -30 329 C-30 328.01 -30 327.02 -30 326 C-35.45404158 322.37845845 -39.44452256 321.37240403 -45.9375 321.25 C-46.71673828 321.22035156 -47.49597656 321.19070313 -48.29882812 321.16015625 C-50.19868177 321.09022299 -52.0993406 321.04275949 -54 321 C-55.125 319.25 -55.125 319.25 -56 317 C-55.6930571 316.44965591 -55.3861142 315.89931183 -55.06987 315.33229065 C-53.57321604 312.06962132 -53.72923192 308.95314747 -53.75708008 305.43334961 C-53.75423256 304.29853401 -53.75423256 304.29853401 -53.75132751 303.14079285 C-53.74762819 300.64453713 -53.75831137 298.14857353 -53.76953125 295.65234375 C-53.77072359 293.91646865 -53.7711761 292.1805929 -53.7709198 290.44471741 C-53.77248318 286.80905104 -53.78076225 283.17348335 -53.79418945 279.5378418 C-53.81119168 274.87485318 -53.81500333 270.21197285 -53.81424427 265.54895687 C-53.81451601 261.9656521 -53.81999772 258.38237106 -53.82724571 254.79907417 C-53.83043014 253.07945498 -53.83239926 251.35983309 -53.83313942 249.64021111 C-53.83530465 247.2391793 -53.84405251 244.83826291 -53.85473633 242.43725586 C-53.85405655 241.36882446 -53.85405655 241.36882446 -53.85336304 240.27880859 C-53.87316034 237.24005169 -54.03074345 234.90776965 -55 232 C-55.99 232 -56.98 232 -58 232 C-57.99476318 232.69150146 -57.98952637 233.38300293 -57.98413086 234.09545898 C-57.963425 237.20946352 -57.95036037 240.32345361 -57.9375 243.4375 C-57.92912109 244.52611328 -57.92074219 245.61472656 -57.91210938 246.73632812 C-57.90888672 247.77080078 -57.90566406 248.80527344 -57.90234375 249.87109375 C-57.89710693 250.82943115 -57.89187012 251.78776855 -57.88647461 252.77514648 C-58 255 -58 255 -59 256 C-60.99958364 256.04080783 -63.00045254 256.04254356 -65 256 C-65.60416667 254.79166667 -66.20833333 253.58333333 -66.8125 252.375 C-67.36357422 251.28638672 -67.36357422 251.28638672 -67.92578125 250.17578125 C-68.83706487 248.33001769 -69.67672806 246.44916485 -70.5 244.5625 C-71.71287184 241.83304042 -71.71287184 241.83304042 -74.09375 241.33984375 C-74.7228125 241.22769531 -75.351875 241.11554688 -76 241 C-75.89264388 248.67546411 -75.78004051 256.35083582 -75.66066074 264.02612209 C-75.60539973 267.58972968 -75.55197482 271.15334543 -75.50268555 274.71704102 C-75.44599468 278.81015245 -75.38142682 282.9031061 -75.31640625 286.99609375 C-75.29969376 288.28148544 -75.28298126 289.56687714 -75.26576233 290.89122009 C-75.2358445 292.66294334 -75.2358445 292.66294334 -75.20532227 294.47045898 C-75.18200584 296.03932106 -75.18200584 296.03932106 -75.15821838 297.63987732 C-75.26300176 299.95640697 -75.26300176 299.95640697 -74 301 C-73.95919217 302.99958364 -73.95745644 305.00045254 -74 307 C-77.02049342 307.19613594 -80.04105658 307.38214855 -83.0625 307.5625 C-83.91005859 307.61857422 -84.75761719 307.67464844 -85.63085938 307.73242188 C-90.60337287 308.02040528 -95.09776245 307.89796753 -100 307 C-100.92610918 304.4274745 -100.97910506 302.87201716 -100.53344727 300.14233398 C-99.67721967 294.55482236 -99.877405 288.92362537 -99.90234375 283.28515625 C-99.90446617 281.46883949 -99.90446617 281.46883949 -99.90663147 279.61582947 C-99.91220974 275.76469406 -99.9247583 271.91361771 -99.9375 268.0625 C-99.94251781 265.4446623 -99.94708022 262.82682369 -99.95117188 260.20898438 C-99.96217206 253.80596958 -99.97888856 247.40298901 -100 241 C-101.65 241 -103.3 241 -105 241 C-105.14695313 241.98742187 -105.29390625 242.97484375 -105.4453125 243.9921875 C-105.66960937 245.27351562 -105.89390625 246.55484375 -106.125 247.875 C-106.33382812 249.15117187 -106.54265625 250.42734375 -106.7578125 251.7421875 C-108 255 -108 255 -110.97265625 256.4609375 C-113.83799929 256.97115342 -115.36319892 257.17191159 -118 256 C-119.2263757 253.54724859 -119.11415314 251.9494219 -119.09765625 249.2109375 C-119.09443359 248.26992188 -119.09121094 247.32890625 -119.08789062 246.359375 C-119.07951172 245.37453125 -119.07113281 244.3896875 -119.0625 243.375 C-119.05798828 242.38242187 -119.05347656 241.38984375 -119.04882812 240.3671875 C-119.03702145 237.9113984 -119.020554 235.45572896 -119 233 C-122.2082057 232.83081552 -125.41658204 232.66510635 -128.625 232.5 C-129.52863281 232.45230469 -130.43226563 232.40460938 -131.36328125 232.35546875 C-135.11434205 232.16380871 -138.82874802 231.99850761 -142.5859375 232.03125 C-145 232 -145 232 -146 231 C-146.04063832 229.33382885 -146.042721 227.66611905 -146 226 C-140.37695935 225.02867854 -135.00920309 224.92225026 -129.3125 225 C-118.38713586 225.08103094 -107.48184068 224.82063887 -96.5625 224.5 C-95.74157867 224.47599121 -94.92065735 224.45198242 -94.07485962 224.42724609 C-89.38310149 224.28916515 -84.69150246 224.14649987 -80 224 C-83.96 221.525 -83.96 221.525 -88 219 C-88 211.89498157 -85.37479802 208.20592666 -81.0078125 202.7109375 C-76.59270933 196.74968925 -75.14153049 190.86844695 -73.625 183.75 C-71.00731193 172.25442137 -67.44732975 164.5765825 -59.859375 155.51953125 C-57.45720768 152.2644936 -56.14283805 148.96963607 -54.796875 145.1796875 C-53.84024659 142.56302744 -52.46783883 140.36130594 -51 138 C-49.96514123 135.68191636 -48.9644586 133.34824702 -48 131 C-47.64164062 130.22785156 -47.28328125 129.45570313 -46.9140625 128.66015625 C-45.85584571 125.58047404 -45.83491024 123.18344007 -45.9375 119.9375 C-46.04122527 116.36123295 -45.89994186 113.4484498 -45 110 C-47.09099648 107.90900352 -52.39099656 108.46994113 -55.36523438 108.36523438 C-57.36328125 108.18359375 -57.36328125 108.18359375 -61 107 C-65.90160299 100.3069482 -66.50132832 92.02940837 -67.75 84 C-67.97146189 82.63912801 -68.19410891 81.27844834 -68.41796875 79.91796875 C-68.95696666 76.61367722 -69.48393131 73.30793657 -70 70 C-71.485 69.505 -71.485 69.505 -73 69 C-73.25394531 69.88042969 -73.50789063 70.76085937 -73.76953125 71.66796875 C-74.28580078 73.41013672 -74.28580078 73.41013672 -74.8125 75.1875 C-75.14894531 76.33605469 -75.48539062 77.48460937 -75.83203125 78.66796875 C-76.91888658 81.76859616 -78.20178903 84.26404005 -80 87 C-81.9375 86.4375 -81.9375 86.4375 -84 85 C-85.63237203 79.44993511 -84.52611328 75.94995477 -82 71 C-78.75607669 64.24391115 -78.75607669 64.24391115 -77 57 C-77.59296875 56.896875 -78.1859375 56.79375 -78.796875 56.6875 C-82.75865921 55.45119854 -84.97694343 52.52234445 -87 49 C-87.93271884 44.62741408 -87.53707397 41.17644774 -85.6875 37.125 C-82.66336634 33.31683168 -82.66336634 33.31683168 -81 32 C-80.01 32 -79.02 32 -78 32 C-78.020625 31.01 -78.04125 30.02 -78.0625 29 C-77.37492972 24.09732498 -74.07179639 21.71794191 -70.3828125 18.734375 C-63.36328455 13.62507925 -56.49550159 12.96691184 -48 14 C-44.625 15.9375 -44.625 15.9375 -42 18 C-38.26774656 18.79682803 -38.26774656 18.79682803 -35 19 C-34.7421875 18.13890625 -34.484375 17.2778125 -34.21875 16.390625 C-32.96135114 12.8924769 -31.3939794 9.94408391 -29.5 6.75 C-28.8915625 5.71359375 -28.283125 4.6771875 -27.65625 3.609375 C-24.60895098 -1.19155836 -21.5851702 -2.25665347 -16.21875 -3.640625 C-10.33365984 -4.29769817 -5.22955187 -2.64319741 0 0 Z M-34 19 C-32.4722133 22.43752007 -30.49818944 25.18953688 -28 28 C-27.34 28 -26.68 28 -26 28 C-26.57363911 24.12793601 -28.34105893 21.81534937 -31 19 C-31.99 19 -32.98 19 -34 19 Z M-25 159 C-25.268125 159.639375 -25.53625 160.27875 -25.8125 160.9375 C-27 163 -27 163 -30 164 C-30 164.66 -30 165.32 -30 166 C-30.6290625 165.77441406 -31.258125 165.54882812 -31.90625 165.31640625 C-37.1234788 163.75480308 -37.1234788 163.75480308 -42.19921875 165.109375 C-44.34105154 166.94402941 -46.16396284 168.85922638 -48 171 C-48.64195312 171.72445312 -49.28390625 172.44890625 -49.9453125 173.1953125 C-53.88419236 177.92526446 -56.03508637 182.20350479 -58 188 C-59 189.33333333 -60 190.66666667 -61 192 C-63.39216789 196.9481829 -64.91821331 201.49072014 -64 207 C-59.57741058 216.69512246 -59.57741058 216.69512246 -52 223.125 C-51.01 223.41375 -50.02 223.7025 -49 224 C-48.34 224.33 -47.68 224.66 -47 225 C-44.45064335 225.24167924 -41.92679315 225.42258348 -39.37109375 225.5546875 C-38.58036972 225.59673309 -37.78964569 225.63877869 -36.97496033 225.68209839 C-27.37148342 226.14298386 -17.7661118 226.15031573 -8.15356445 226.13037109 C-5.0144386 226.12491649 -1.87545018 226.13040212 1.26367188 226.13671875 C3.26822948 226.13605944 5.272787 226.13478134 7.27734375 226.1328125 C8.21158676 226.13483673 9.14582977 226.13686096 10.10838318 226.13894653 C10.97101273 226.13579437 11.83364227 226.13264221 12.72241211 226.12939453 C13.85675941 226.12820114 13.85675941 226.12820114 15.01402283 226.12698364 C17.2113204 226.0712532 17.2113204 226.0712532 20 225 C19.64087653 215.02616191 16.78835804 209.3141207 10.5078125 201.97265625 C8.08236691 199.0976343 6.03424187 196.15956717 4 193 C3.5565625 192.35675781 3.113125 191.71351563 2.65625 191.05078125 C-1.81520971 184.32848541 -4.5698492 176.93733696 -6 169 C-7.5778125 169.0309375 -7.5778125 169.0309375 -9.1875 169.0625 C-15.33685601 168.96169089 -15.33685601 168.96169089 -18 168 C-19.5625 165.6875 -19.5625 165.6875 -21 163 C-22.29579647 161.63015802 -23.61992749 160.2848951 -25 159 Z M39 225 C39 225.33 39 225.66 39 226 C40.65 226 42.3 226 44 226 C44 225.67 44 225.34 44 225 C42.35 225 40.7 225 39 225 Z M44 232 C41.75554542 234.67373907 41.75554542 234.67373907 42.20703125 236.9453125 C42.50673828 238.02425781 42.50673828 238.02425781 42.8125 239.125 C43.61439922 242.23737134 44.12564384 245.10674906 44.3125 248.3125 C44.86507377 254.30580009 47.5171733 259.58542222 50 265 C52.1430791 261.78538134 52.98455544 259.07198097 54.0625 255.375 C55.89703588 249.10296412 55.89703588 249.10296412 57 248 C57.42522609 245.6962066 57.79072521 243.38123707 58.125 241.0625 C58.31320312 239.79535156 58.50140625 238.52820313 58.6953125 237.22265625 C59.27635237 234.11152416 59.27635237 234.11152416 58 232 C55.78225221 231.49173851 55.78225221 231.49173851 53.1875 231.3125 C51.87845703 231.18294922 51.87845703 231.18294922 50.54296875 231.05078125 C48.0663885 231.00132573 46.30184836 231.09623741 44 232 Z M5 232 C3.38257363 236.02309218 4.70540496 239.47559361 5.875 243.4375 C7.06390468 247.60686572 8.15082216 251.74697483 9 256 C9.49474397 257.61240394 10.01488607 259.21727681 10.5625 260.8125 C10.83191406 261.60269531 11.10132813 262.39289063 11.37890625 263.20703125 C11.68634766 264.09455078 11.68634766 264.09455078 12 265 C14.25624982 264.15786457 14.25624982 264.15786457 14.88549805 261.57910156 C15.83089892 258.13888553 16.77039145 254.69788707 17.6875 251.25 C18.02072266 250.05632812 18.35394531 248.86265625 18.69726562 247.6328125 C19.00728516 246.48039063 19.31730469 245.32796875 19.63671875 244.140625 C19.92248779 243.08391602 20.20825684 242.02720703 20.50268555 240.93847656 C21.01610217 237.9048573 20.87140853 235.93119099 20 233 C18.86298403 231.63467451 18.86298403 231.63467451 15.83984375 231.90234375 C14.55207031 231.91394531 13.26429688 231.92554688 11.9375 231.9375 C10.64714844 231.94652344 9.35679687 231.95554687 8.02734375 231.96484375 C7.02832031 231.97644531 6.02929688 231.98804688 5 232 Z M-42 237 C-42 259.77 -42 282.54 -42 306 C-40.02 305.505 -40.02 305.505 -38 305 C-38 282.89 -38 260.78 -38 238 C-39.32 237.67 -40.64 237.34 -42 237 Z M-26 332 C-25.67 333.32 -25.34 334.64 -25 336 C-24.01 335.67 -23.02 335.34 -22 335 C-22.66 334.01 -23.32 333.02 -24 332 C-24.66 332 -25.32 332 -26 332 Z M-27 345 C-26.67 346.32 -26.34 347.64 -26 349 C-25.01 348.67 -24.02 348.34 -23 348 C-23.66 348 -24.32 348 -25 348 C-25 347.01 -25 346.02 -25 345 C-25.66 345 -26.32 345 -27 345 Z " fill="#EEEEEE" transform="translate(271,72)"/>
<path d="M0 0 C0.12375 0.969375 0.2475 1.93875 0.375 2.9375 C0.684375 4.4534375 0.684375 4.4534375 1 6 C1.99 6.495 1.99 6.495 3 7 C3 5.68 3 4.36 3 3 C3.99 3.495 3.99 3.495 5 4 C5.66 3.67 6.32 3.34 7 3 C8.67293936 3.30027117 10.33985384 3.63557767 12 4 C15.18490007 4.2773501 15.18490007 4.2773501 18 2 C22.67006409 1.23499902 26.25717819 1.661169 30.5625 3.625 C33 6 33 6 33.5 9.125 C33 12 33 12 31 14 C31.495 14.7734375 31.495 14.7734375 32 15.5625 C33.3799145 18.9260416 33.37974846 21.39238959 33 25 C31.75 27.9375 31.75 27.9375 29 30 C24.94048418 30.58792988 21.04912669 30.68339691 17 30 C15.12890625 28.46875 15.12890625 28.46875 14 27 C13.34 27.66 12.68 28.32 12 29 C9.19069613 28.82043625 8.13280491 28.13005533 6.11328125 26.15234375 C5.51902344 25.42144531 4.92476563 24.69054687 4.3125 23.9375 C3.22435471 22.611687 2.12422177 21.29536315 1 20 C0.67 20 0.34 20 0 20 C-0.66 23.3 -1.32 26.6 -2 30 C-12 30 -22 30 -32 30 C-32.66 28.02 -33.32 26.04 -34 24 C-34.66 24 -35.32 24 -36 24 C-36.33 22.68 -36.66 21.36 -37 20 C-38.32 20 -39.64 20 -41 20 C-40.979375 21.27875 -40.95875 22.5575 -40.9375 23.875 C-40.875 27.75 -40.875 27.75 -42 30 C-43.65 29.67 -45.3 29.34 -47 29 C-48.11165232 24.5621439 -48.11527763 20.23043614 -48.0625 15.6875 C-48.05798828 14.94693359 -48.05347656 14.20636719 -48.04882812 13.44335938 C-48.03712175 11.62887101 -48.01918898 9.81442466 -48 8 C-50.31 7.67 -52.62 7.34 -55 7 C-55 14.26 -55 21.52 -55 29 C-56.65 29.33 -58.3 29.66 -60 30 C-60.99968033 25.89193864 -61.07165843 22.0938899 -61 17.875 C-60.88707076 12.84515855 -60.88707076 12.84515855 -62 8 C-63.65 7.67 -65.3 7.34 -67 7 C-67 5.68 -67 4.36 -67 3 C-63.4201548 2.18137841 -60.10762899 1.86479102 -56.4375 1.875 C-55.04337891 1.87113281 -55.04337891 1.87113281 -53.62109375 1.8671875 C-51 2 -51 2 -48.84375 2.54296875 C-46.82710671 3.17947592 -46.82710671 3.17947592 -44.0625 2.4375 C-39.19221484 1.57427659 -34.50061992 2.74931755 -29.6953125 3.625 C-28.80585938 3.74875 -27.91640625 3.8725 -27 4 C-26.67 3.67 -26.34 3.34 -26 3 C-20.3177849 1.91191626 -14.77185149 1.89547955 -9 2 C-8.505 2.99 -8.505 2.99 -8 4 C-7.67 3.01 -7.34 2.02 -7 1 C-4.53721199 -0.231394 -2.7204945 -0.07159196 0 0 Z M-27 5 C-28.20561184 5.98267859 -28.20561184 5.98267859 -28.09765625 7.84765625 C-28.08605469 8.57855469 -28.07445312 9.30945313 -28.0625 10.0625 C-28.041875 11.361875 -28.02125 12.66125 -28 14 C-25.70986347 10.5647952 -25.82157027 9.014669 -26 5 C-26.33 5 -26.66 5 -27 5 Z M-20 8 C-19.36020151 10.03241727 -19.36020151 10.03241727 -18 12 C-15.44480079 12.81171228 -15.44480079 12.81171228 -13 13 C-13 14.65 -13 16.3 -13 18 C-13.804375 18.2475 -14.60875 18.495 -15.4375 18.75 C-16.7059375 19.36875 -16.7059375 19.36875 -18 20 C-18.69535873 22.03028196 -18.69535873 22.03028196 -19 24 C-17.35425434 24.02688151 -15.70838587 24.04634123 -14.0625 24.0625 C-12.68771484 24.07990234 -12.68771484 24.07990234 -11.28515625 24.09765625 C-9.03406673 24.25949049 -9.03406673 24.25949049 -8 23 C-7.92680379 20.30345146 -7.90757463 17.63308542 -7.9375 14.9375 C-7.94201172 14.17888672 -7.94652344 13.42027344 -7.95117188 12.63867188 C-7.9629932 10.75908129 -7.98092922 8.87953101 -8 7 C-9.43739513 6.97287934 -10.87493863 6.95354933 -12.3125 6.9375 C-13.11300781 6.92589844 -13.91351563 6.91429687 -14.73828125 6.90234375 C-17.16861334 6.90342145 -17.16861334 6.90342145 -20 8 Z M11 7 C7.0918396 10.72366242 7.0918396 10.72366242 5.8125 15.6875 C7.48699386 18.94835646 9.68080329 19.65819708 13 21 C13.99 20.01 14.98 19.02 16 18 C15.01 14.37 14.02 10.74 13 7 C12.34 7 11.68 7 11 7 Z M20 7 C20 8.32 20 9.64 20 11 C21.84725052 11.69159401 21.84725052 11.69159401 24 12 C24.99 11.34 25.98 10.68 27 10 C26.34 9.01 25.68 8.02 25 7 C22.41619823 6.74969023 22.41619823 6.74969023 20 7 Z M-41 8 C-41 9.98 -41 11.96 -41 14 C-40.21625 13.814375 -39.4325 13.62875 -38.625 13.4375 C-36 13 -36 13 -34 14 C-34 12.02 -34 10.04 -34 8 C-36.31 8 -38.62 8 -41 8 Z M-2 10 C-1.67 10.99 -1.34 11.98 -1 13 C-1 12.01 -1 11.02 -1 10 C-1.33 10 -1.66 10 -2 10 Z M-21 11 C-21 12.65 -21 14.3 -21 16 C-20.01 16.495 -20.01 16.495 -19 17 C-19.33 15.02 -19.66 13.04 -20 11 C-20.33 11 -20.66 11 -21 11 Z M4 13 C5 15 5 15 5 15 Z M-30 18 C-30 18.99 -30 19.98 -30 21 C-28.68 21.33 -27.36 21.66 -26 22 C-26 20.35 -26 18.7 -26 17 C-27.36893239 16.94729537 -27.36893239 16.94729537 -30 18 Z M20 18 C19.34 18.66 18.68 19.32 18 20 C18.3185177 22.10820797 18.3185177 22.10820797 19 24 C21.31 24 23.62 24 26 24 C26.33 22.68 26.66 21.36 27 20 C24.04622502 17.63019987 24.04622502 17.63019987 20 18 Z M-21 20 C-21 21.65 -21 23.3 -21 25 C-20.67 25 -20.34 25 -20 25 C-20 23.35 -20 21.7 -20 20 C-20.33 20 -20.66 20 -21 20 Z M-8 25 C-7 28 -7 28 -7 28 Z " fill="#242424" transform="translate(193,397)"/>
<path d="M0 0 C1.15886719 0.02449219 2.31773437 0.04898437 3.51171875 0.07421875 C6.3125 0.3125 6.3125 0.3125 7.3125 1.3125 C9.00391656 1.22286938 10.69209602 1.06672324 12.375 0.875 C13.29410156 0.77316406 14.21320313 0.67132813 15.16015625 0.56640625 C16.22556641 0.44072266 16.22556641 0.44072266 17.3125 0.3125 C18.48676264 2.66102528 18.42758173 4.05024065 18.41015625 6.6640625 C18.40693359 7.51484375 18.40371094 8.365625 18.40039062 9.2421875 C18.39201172 10.13164062 18.38363281 11.02109375 18.375 11.9375 C18.37048828 12.8346875 18.36597656 13.731875 18.36132812 14.65625 C18.34952591 16.87506648 18.33306155 19.09375018 18.3125 21.3125 C20.6225 21.3125 22.9325 21.3125 25.3125 21.3125 C25.21710938 20.04792969 25.12171875 18.78335937 25.0234375 17.48046875 C24.91088715 15.82035113 24.79893932 14.16019258 24.6875 12.5 C24.62304688 11.66662109 24.55859375 10.83324219 24.4921875 9.97460938 C24.440625 9.17216797 24.3890625 8.36972656 24.3359375 7.54296875 C24.28356934 6.80457764 24.23120117 6.06618652 24.17724609 5.30541992 C24.3125 3.3125 24.3125 3.3125 26.3125 0.3125 C27.055 0.498125 27.7975 0.68375 28.5625 0.875 C31.1583844 1.47787599 31.1583844 1.47787599 33.04296875 0.85546875 C36.17159643 0.10696746 39.1616041 0.10304758 42.375 0.0625 C43.60347656 0.03671875 44.83195312 0.0109375 46.09765625 -0.015625 C49.3125 0.3125 49.3125 0.3125 51.24609375 1.828125 C51.59800781 2.31796875 51.94992187 2.8078125 52.3125 3.3125 C55.85768884 1.91490095 55.85768884 1.91490095 59.3125 0.3125 C61.28887414 0.19022074 63.2698831 0.13700071 65.25 0.125 C66.84134766 0.10373047 66.84134766 0.10373047 68.46484375 0.08203125 C71.3125 0.3125 71.3125 0.3125 74.3125 2.3125 C74.5703125 4.37890625 74.5703125 4.37890625 74.4375 6.875 C74.30969665 10.41259683 74.44297927 13.63042784 75 17.125 C75.40808397 20.3273256 75.35296532 21.22000783 74 24.3125 C72.3125 26.3125 72.3125 26.3125 70.3125 27.3125 C68.54382545 27.40933564 66.77131697 27.44229382 65 27.4375 C64.05511719 27.44007813 63.11023438 27.44265625 62.13671875 27.4453125 C59.3125 27.3125 59.3125 27.3125 56.76953125 26.7421875 C53.99855378 26.25759685 52.01723383 26.61699701 49.3125 27.3125 C48.3069239 25.85800599 47.30819565 24.39877557 46.3125 22.9375 C45.755625 22.12539063 45.19875 21.31328125 44.625 20.4765625 C43.3125 18.3125 43.3125 18.3125 43.3125 16.3125 C40.18643036 17.91730784 40.18643036 17.91730784 39.80078125 20.2578125 C39.71376953 21.33675781 39.71376953 21.33675781 39.625 22.4375 C39.521875 23.71625 39.41875 24.995 39.3125 26.3125 C37.9925 26.6425 36.6725 26.9725 35.3125 27.3125 C34.6525 25.9925 33.9925 24.6725 33.3125 23.3125 C32.8175 23.8075 32.8175 23.8075 32.3125 24.3125 C28.13949475 27.79000438 24.12476669 27.80920899 18.9140625 27.67578125 C15.41642014 27.18737173 13.63032849 25.93937228 11.3125 23.3125 C10.9825 22.6525 10.6525 21.9925 10.3125 21.3125 C9.735 22.3025 9.1575 23.2925 8.5625 24.3125 C6.58548985 26.71112038 5.54485328 27.26590255 2.44921875 27.88671875 C-5.66751378 28.17412442 -5.66751378 28.17412442 -9.02734375 25.3359375 C-11.2900952 21.2150678 -11.27710704 17.87596363 -11.1875 13.25 C-11.20296875 12.44755859 -11.2184375 11.64511719 -11.234375 10.81835938 C-11.20989921 7.13169349 -11.07973394 4.92981734 -9.07421875 1.7734375 C-5.89463448 -0.17282194 -3.7036963 -0.12027681 0 0 Z M10.3125 2.3125 C11.3125 5.3125 11.3125 5.3125 11.3125 5.3125 Z M-3.6875 4.3125 C-5.04185584 5.44149299 -5.04185584 5.44149299 -4.8203125 8.40234375 C-4.81773437 9.67207031 -4.81515625 10.94179688 -4.8125 12.25 C-4.81507813 13.51714844 -4.81765625 14.78429687 -4.8203125 16.08984375 C-4.91256069 19.20404889 -4.91256069 19.20404889 -3.6875 21.3125 C-1.0475 21.3125 1.5925 21.3125 4.3125 21.3125 C3.6525 20.9825 2.9925 20.6525 2.3125 20.3125 C2.47621094 19.77109375 2.63992188 19.2296875 2.80859375 18.671875 C3.39840587 15.91027407 3.40859308 13.38431861 3.375 10.5625 C3.36146484 9.08523438 3.36146484 9.08523438 3.34765625 7.578125 C3.33605469 6.83046875 3.32445312 6.0828125 3.3125 5.3125 C0.9864143 4.93186779 -1.34805264 4.59980055 -3.6875 4.3125 Z M40.3125 5.3125 C40.3125 7.2925 40.3125 9.2725 40.3125 11.3125 C42.2925 10.9825 44.2725 10.6525 46.3125 10.3125 C46.3125 8.6625 46.3125 7.0125 46.3125 5.3125 C43.26336772 4.30138907 43.26336772 4.30138907 40.3125 5.3125 Z M61.3125 4.3125 C61.6425 6.2925 61.9725 8.2725 62.3125 10.3125 C64.2925 9.9825 66.2725 9.6525 68.3125 9.3125 C68.6425 8.3225 68.9725 7.3325 69.3125 6.3125 C68.9825 5.6525 68.6525 4.9925 68.3125 4.3125 C66.0025 4.3125 63.6925 4.3125 61.3125 4.3125 Z M53.3125 5.3125 C52.80690092 6.74804025 52.3082251 8.1860202 51.8125 9.625 C51.5340625 10.42550781 51.255625 11.22601563 50.96875 12.05078125 C50.14526074 14.88887816 49.97471995 16.6369399 51.3125 19.3125 C53.26249129 19.11778889 53.26249129 19.11778889 55.3125 18.3125 C56.64152697 16.57251371 56.64152697 16.57251371 57.3125 14.3125 C56.91286423 11.9087108 56.91286423 11.9087108 55.9375 9.5625 C55.64101563 8.76328125 55.34453125 7.9640625 55.0390625 7.140625 C54.79929687 6.53734375 54.55953125 5.9340625 54.3125 5.3125 C53.9825 5.3125 53.6525 5.3125 53.3125 5.3125 Z M65.3125 16.3125 C64.9825 16.9725 64.6525 17.6325 64.3125 18.3125 C64.6425 19.3025 64.9725 20.2925 65.3125 21.3125 C66.6325 20.9825 67.9525 20.6525 69.3125 20.3125 C69.3125 18.9925 69.3125 17.6725 69.3125 16.3125 C67.9925 16.3125 66.6725 16.3125 65.3125 16.3125 Z M54.3125 20.3125 C54.3125 23.3125 54.3125 23.3125 54.3125 23.3125 Z " fill="#484848" transform="translate(297.6875,399.6875)"/>
<path d="M0 0 C0.65234375 1.734375 0.65234375 1.734375 1 4 C0.00390625 6.140625 0.00390625 6.140625 -1.4375 8.25 C-1.91058594 8.95640625 -2.38367188 9.6628125 -2.87109375 10.390625 C-3.24363281 10.92171875 -3.61617188 11.4528125 -4 12 C-1.36 12.66 1.28 13.32 4 14 C4 15.32 4 16.64 4 18 C1.69 18 -0.62 18 -3 18 C-2.91621094 19.00160156 -2.83242188 20.00320313 -2.74609375 21.03515625 C-2.64283088 22.37757359 -2.53998879 23.72002334 -2.4375 25.0625 C-2.28087891 27.02896484 -2.28087891 27.02896484 -2.12109375 29.03515625 C-2.00234381 32.92325897 -2.33133784 36.19110223 -3 40 C-4.65614657 40.38218767 -6.32457024 40.71395102 -8 41 C-9 40 -9 40 -9.11352539 37.86694336 C-9.10828857 36.95050049 -9.10305176 36.03405762 -9.09765625 35.08984375 C-9.09443359 34.10048828 -9.09121094 33.11113281 -9.08789062 32.09179688 C-9.07532227 30.53041992 -9.07532227 30.53041992 -9.0625 28.9375 C-9.05798828 27.89271484 -9.05347656 26.84792969 -9.04882812 25.77148438 C-9.03699913 23.1809334 -9.02051689 20.59049441 -9 18 C-10.98 18 -12.96 18 -15 18 C-15.33 17.01 -15.66 16.02 -16 15 C-20.29 15 -24.58 15 -29 15 C-28.79375 16.093125 -28.5875 17.18625 -28.375 18.3125 C-28 22 -28 22 -30 25 C-30.99 25 -31.98 25 -33 25 C-32.030625 25.268125 -31.06125 25.53625 -30.0625 25.8125 C-29.051875 26.204375 -28.04125 26.59625 -27 27 C-25.90341064 30.28976808 -26.20046862 31.71303767 -27 35 C-26.34 35 -25.68 35 -25 35 C-24.375 36.875 -24.375 36.875 -24 39 C-26.92980811 41.92980811 -30.01844476 41.36810632 -33.9375 41.375 C-35.03094727 41.41173828 -35.03094727 41.41173828 -36.14648438 41.44921875 C-41.46462386 41.47846608 -41.46462386 41.47846608 -43.984375 39.2265625 C-45.56471674 35.76196715 -45.47938997 32.73460253 -45 29 C-44.34870203 27.65909241 -43.68486725 26.32407669 -43 25 C-43.165 24.195625 -43.33 23.39125 -43.5 22.5625 C-44.12104157 19.37966193 -43.30179982 17.90990547 -42 15 C-42 14.01 -42 13.02 -42 12 C-40.0625 11.4375 -40.0625 11.4375 -38 11 C-37.67 11.33 -37.34 11.66 -37 12 C-32.96021518 12.33851918 -28.91658797 12.39959827 -24.86401367 12.45996094 C-23.50492961 12.48648596 -22.14604368 12.52732366 -20.7878418 12.58300781 C-12.91810911 13.13877446 -12.91810911 13.13877446 -5.77099609 10.51171875 C-3.36762627 7.78306463 -2.15068249 5.45204746 -1 2 C-3.31 2 -5.62 2 -8 2 C-8 2.66 -8 3.32 -8 4 C-9.32 3.67 -10.64 3.34 -12 3 C-7.77050005 0.58314288 -4.87664009 -0.34833144 0 0 Z M-38 18 C-37.67 19.32 -37.34 20.64 -37 22 C-36.01 21.67 -35.02 21.34 -34 21 C-34.66 20.01 -35.32 19.02 -36 18 C-36.66 18 -37.32 18 -38 18 Z M-39 31 C-38.67 32.32 -38.34 33.64 -38 35 C-37.01 34.67 -36.02 34.34 -35 34 C-35.66 34 -36.32 34 -37 34 C-37 33.01 -37 32.02 -37 31 C-37.66 31 -38.32 31 -39 31 Z " fill="#2D2D2D" transform="translate(283,386)"/>
<path d="M0 0 C2.27024968 -0.08097324 4.54132075 -0.13917704 6.8125 -0.1875 C8.07707031 -0.22230469 9.34164063 -0.25710938 10.64453125 -0.29296875 C14 0 14 0 15.94921875 1.51171875 C16.29597656 2.00285156 16.64273437 2.49398438 17 3 C20.54518884 1.60240095 20.54518884 1.60240095 24 0 C25.97637414 -0.12227926 27.9573831 -0.17549929 29.9375 -0.1875 C31.52884766 -0.20876953 31.52884766 -0.20876953 33.15234375 -0.23046875 C36 0 36 0 39 2 C39.2578125 4.06640625 39.2578125 4.06640625 39.125 6.5625 C38.99719665 10.10009683 39.13047927 13.31792784 39.6875 16.8125 C40.09558397 20.0148256 40.04046532 20.90750783 38.6875 24 C37 26 37 26 35 27 C33.23132545 27.09683564 31.45881697 27.12979382 29.6875 27.125 C28.74261719 27.12757813 27.79773438 27.13015625 26.82421875 27.1328125 C24 27 24 27 21.45703125 26.4296875 C18.68605378 25.94509685 16.70473383 26.30449701 14 27 C12.9944239 25.54550599 11.99569565 24.08627557 11 22.625 C10.443125 21.81289063 9.88625 21.00078125 9.3125 20.1640625 C8 18 8 18 8 16 C4.87393036 17.60480784 4.87393036 17.60480784 4.48828125 19.9453125 C4.43027344 20.66460937 4.37226563 21.38390625 4.3125 22.125 C4.1578125 24.043125 4.1578125 24.043125 4 26 C3.67 26 3.34 26 3 26 C3 18.41 3 10.82 3 3 C5.97 3 8.94 3 12 3 C13 4 13 4 13.125 7.5 C13 11 13 11 12 12 C10.00041636 12.04080783 7.99954746 12.04254356 6 12 C6 12.99 6 13.98 6 15 C6.90492188 15.10634766 6.90492188 15.10634766 7.828125 15.21484375 C10.81922654 16.29615924 11.33377246 17.76938457 12.75 20.5625 C13.17796875 21.38878906 13.6059375 22.21507812 14.046875 23.06640625 C14.36140625 23.70449219 14.6759375 24.34257812 15 25 C15.66 25 16.32 25 17 25 C16.53909825 22.41895019 16.05327196 21.06556549 14.375 19 C13 17 13 17 13.25 14.8125 C14 13 14 13 15 12 C15.22918242 7.98342857 15.22918242 7.98342857 15 4 C12.22957891 1.22957891 10.23466195 1.60203894 6.375 1.375 C5.18648438 1.30023438 3.99796875 1.22546875 2.7734375 1.1484375 C1.85820312 1.09945313 0.94296875 1.05046875 0 1 C0 0.67 0 0.34 0 0 Z M5 5 C5 6.98 5 8.96 5 11 C6.98 10.67 8.96 10.34 11 10 C11 8.35 11 6.7 11 5 C7.95086772 3.98888907 7.95086772 3.98888907 5 5 Z M26 4 C26.33 5.98 26.66 7.96 27 10 C28.98 9.67 30.96 9.34 33 9 C33.33 8.01 33.66 7.02 34 6 C33.67 5.34 33.34 4.68 33 4 C30.69 4 28.38 4 26 4 Z M18 5 C17.49440092 6.43554025 16.9957251 7.8735202 16.5 9.3125 C16.2215625 10.11300781 15.943125 10.91351563 15.65625 11.73828125 C14.83276074 14.57637816 14.66221995 16.3244399 16 19 C17.94999129 18.80528889 17.94999129 18.80528889 20 18 C21.32902697 16.26001371 21.32902697 16.26001371 22 14 C21.60036423 11.5962108 21.60036423 11.5962108 20.625 9.25 C20.32851563 8.45078125 20.03203125 7.6515625 19.7265625 6.828125 C19.48679687 6.22484375 19.24703125 5.6215625 19 5 C18.67 5 18.34 5 18 5 Z M30 16 C29.67 16.66 29.34 17.32 29 18 C29.33 18.99 29.66 19.98 30 21 C31.32 20.67 32.64 20.34 34 20 C34 18.68 34 17.36 34 16 C32.68 16 31.36 16 30 16 Z M19 20 C19 23 19 23 19 23 Z " fill="#292929" transform="translate(333,400)"/>
<path d="M0 0 C0.65234375 1.734375 0.65234375 1.734375 1 4 C0.00390625 6.140625 0.00390625 6.140625 -1.4375 8.25 C-1.91058594 8.95640625 -2.38367188 9.6628125 -2.87109375 10.390625 C-3.24363281 10.92171875 -3.61617188 11.4528125 -4 12 C-1.36 12.66 1.28 13.32 4 14 C4 15.32 4 16.64 4 18 C1.69 18 -0.62 18 -3 18 C-2.91621094 19.00160156 -2.83242188 20.00320313 -2.74609375 21.03515625 C-2.64283088 22.37757359 -2.53998879 23.72002334 -2.4375 25.0625 C-2.28087891 27.02896484 -2.28087891 27.02896484 -2.12109375 29.03515625 C-2.00234381 32.92325897 -2.33133784 36.19110223 -3 40 C-4.65614657 40.38218767 -6.32457024 40.71395102 -8 41 C-9 40 -9 40 -9.11352539 37.86694336 C-9.10828857 36.95050049 -9.10305176 36.03405762 -9.09765625 35.08984375 C-9.09443359 34.10048828 -9.09121094 33.11113281 -9.08789062 32.09179688 C-9.07532227 30.53041992 -9.07532227 30.53041992 -9.0625 28.9375 C-9.05798828 27.89271484 -9.05347656 26.84792969 -9.04882812 25.77148438 C-9.03699913 23.1809334 -9.02051689 20.59049441 -9 18 C-10.98 18 -12.96 18 -15 18 C-15.33 17.01 -15.66 16.02 -16 15 C-24.74507107 14.89378456 -33.30019136 14.98713247 -42 16 C-41.67 15.01 -41.34 14.02 -41 13 C-41.33 12.34 -41.66 11.68 -42 11 C-41.31156006 11.15791016 -40.62312012 11.31582031 -39.91381836 11.47851562 C-34.18565587 12.50368153 -28.36730798 12.39751197 -22.5625 12.5 C-20.59700195 12.58121094 -20.59700195 12.58121094 -18.59179688 12.6640625 C-11.84982007 12.95177601 -11.84982007 12.95177601 -5.78857422 10.51171875 C-3.38159174 7.78222504 -2.1518771 5.4556313 -1 2 C-3.31 2 -5.62 2 -8 2 C-8 2.66 -8 3.32 -8 4 C-9.32 3.67 -10.64 3.34 -12 3 C-7.77050005 0.58314288 -4.87664009 -0.34833144 0 0 Z " fill="#2F2F2F" transform="translate(283,386)"/>
<path d="M0 0 C13 0 13 0 16 2 C16.29296875 4.3828125 16.29296875 4.3828125 16.1875 7.125 C16.16042969 8.03507812 16.13335937 8.94515625 16.10546875 9.8828125 C16.07066406 10.58148438 16.03585938 11.28015625 16 12 C15.01 12.33 14.02 12.66 13 13 C13.3609375 13.51949219 13.721875 14.03898437 14.09375 14.57421875 C18.7029877 21.50087873 18.7029877 21.50087873 18 26 C16.68 26 15.36 26 14 26 C13.34 24.02 12.68 22.04 12 20 C11.34 20 10.68 20 10 20 C9.67 18.68 9.34 17.36 9 16 C7.68 16 6.36 16 5 16 C5.020625 17.27875 5.04125 18.5575 5.0625 19.875 C5.125 23.75 5.125 23.75 4 26 C2.68 26 1.36 26 0 26 C0 17.42 0 8.84 0 0 Z M5 4 C5 5.98 5 7.96 5 10 C5.78375 9.814375 6.5675 9.62875 7.375 9.4375 C10 9 10 9 12 10 C12 8.02 12 6.04 12 4 C9.69 4 7.38 4 5 4 Z " fill="#D6D6D6" transform="translate(147,401)"/>
<path d="M0 0 C3.5625 1.625 3.5625 1.625 6 4 C6.5 7.125 6.5 7.125 6 10 C5.34 10.66 4.68 11.32 4 12 C4.33 12.515625 4.66 13.03125 5 13.5625 C6.33319238 16.81215644 6.19333264 19.52001247 6 23 C4.70280625 25.59438751 3.67964831 25.95586118 1 27 C-1.578125 27.1953125 -1.578125 27.1953125 -4.25 27.125 C-5.14203125 27.10695313 -6.0340625 27.08890625 -6.953125 27.0703125 C-7.62859375 27.04710937 -8.3040625 27.02390625 -9 27 C-9.33 26.01 -9.66 25.02 -10 24 C-6.7 23.67 -3.4 23.34 0 23 C0 20.69 0 18.38 0 16 C-0.69867188 15.95101563 -1.39734375 15.90203125 -2.1171875 15.8515625 C-3.02726563 15.77679688 -3.93734375 15.70203125 -4.875 15.625 C-5.77992188 15.55539062 -6.68484375 15.48578125 -7.6171875 15.4140625 C-10 15 -10 15 -12 13 C-12.59270643 9.01270219 -12.44803543 5.22463017 -11.0625 1.4375 C-7.59839162 -0.97687857 -4.06355446 -0.67725908 0 0 Z M-7 5 C-7 6.32 -7 7.64 -7 9 C-5.15274948 9.69159401 -5.15274948 9.69159401 -3 10 C-2.01 9.34 -1.02 8.68 0 8 C-0.66 7.01 -1.32 6.02 -2 5 C-4.58380177 4.74969023 -4.58380177 4.74969023 -7 5 Z " fill="#9B9B9B" transform="translate(220,399)"/>
<path d="M0 0 C0.68900391 0.00386719 1.37800781 0.00773437 2.08789062 0.01171875 C2.76529297 0.00785156 3.44269531 0.00398438 4.140625 0 C7.5294119 0.00662519 10.51276865 0.26372693 13.77539062 1.13671875 C14.84789062 0.97171875 15.92039063 0.80671875 17.02539062 0.63671875 C21.27941379 0.06951566 24.55604504 0.47050629 28.77539062 1.13671875 C28.77539062 2.12671875 28.77539062 3.11671875 28.77539062 4.13671875 C28.28039062 3.64171875 28.28039062 3.64171875 27.77539062 3.13671875 C23.45048209 2.67148955 19.11603525 2.43171402 14.77539062 2.13671875 C14.77539062 10.38671875 14.77539062 18.63671875 14.77539062 27.13671875 C14.11539063 26.80671875 13.45539063 26.47671875 12.77539062 26.13671875 C12.77539062 19.53671875 12.77539062 12.93671875 12.77539062 6.13671875 C10.46539062 5.80671875 8.15539062 5.47671875 5.77539062 5.13671875 C5.77539062 12.39671875 5.77539062 19.65671875 5.77539062 27.13671875 C4.12539062 27.46671875 2.47539062 27.79671875 0.77539062 28.13671875 C-0.22428971 24.02865739 -0.2962678 20.23060865 -0.22460938 16.01171875 C-0.11168013 10.9818773 -0.11168013 10.9818773 -1.22460938 6.13671875 C-2.87460938 5.80671875 -4.52460937 5.47671875 -6.22460938 5.13671875 C-6.22460938 -0.68085883 -5.34368786 0.01050873 0 0 Z " fill="#303030" transform="translate(132.224609375,398.86328125)"/>
<path d="M0 0 C1.65 0.33 3.3 0.66 5 1 C5 2.98 5 4.96 5 7 C6.32 7 7.64 7 9 7 C14.61349893 16.09773964 15.67879433 27.1264491 16.5 37.625 C16.87983207 41.98934492 17.84266139 45.16473136 20 49 C22.0351761 50.4818964 22.0351761 50.4818964 24 51 C22.35 51 20.7 51 19 51 C14.65679624 43.72420567 13.53803458 36.28252597 12.25 28 C12.02853811 26.63912801 11.80589109 25.27844834 11.58203125 23.91796875 C11.04303334 20.61367722 10.51606869 17.30793657 10 14 C9.01 13.67 8.02 13.34 7 13 C6.74605469 13.88042969 6.49210938 14.76085937 6.23046875 15.66796875 C5.88628906 16.82941406 5.54210937 17.99085938 5.1875 19.1875 C4.68283203 20.91033203 4.68283203 20.91033203 4.16796875 22.66796875 C3.08111342 25.76859616 1.79821097 28.26404005 0 31 C-1.9375 30.4375 -1.9375 30.4375 -4 29 C-5.63237203 23.44993511 -4.52611328 19.94995477 -2 15 C1.24392331 8.24391115 1.24392331 8.24391115 3 1 C2.01 0.67 1.02 0.34 0 0 Z " fill="#B4B4B4" transform="translate(191,128)"/>
<path d="M0 0 C3.96 0.99 7.92 1.98 12 3 C12 3.66 12 4.32 12 5 C-13.08 5 -38.16 5 -64 5 C-64 5.99 -64 6.98 -64 8 C-54.76 8 -45.52 8 -36 8 C-36 16.25 -36 24.5 -36 33 C-33.69 33 -31.38 33 -29 33 C-29 31.35 -29 29.7 -29 28 C-28.34 27.67 -27.68 27.34 -27 27 C-27 28.98 -27 30.96 -27 33 C-32.35652174 35.06956522 -32.35652174 35.06956522 -35.3125 34.75 C-37 34 -37 34 -38 32 C-38.08400529 30.40552536 -38.10727467 28.80759455 -38.09765625 27.2109375 C-38.09443359 26.26992188 -38.09121094 25.32890625 -38.08789062 24.359375 C-38.07951172 23.37453125 -38.07113281 22.3896875 -38.0625 21.375 C-38.05798828 20.38242187 -38.05347656 19.38984375 -38.04882812 18.3671875 C-38.03702145 15.9113984 -38.020554 13.45572896 -38 11 C-41.2082057 10.83081552 -44.41658204 10.66510635 -47.625 10.5 C-48.98044922 10.42845703 -48.98044922 10.42845703 -50.36328125 10.35546875 C-54.11434205 10.16380871 -57.82874802 9.99850761 -61.5859375 10.03125 C-64 10 -64 10 -65 9 C-65.04063832 7.33382885 -65.042721 5.66611905 -65 4 C-59.37695935 3.02867854 -54.00920309 2.92225026 -48.3125 3 C-37.38713586 3.08103094 -26.48184068 2.82063887 -15.5625 2.5 C-14.74157867 2.47599121 -13.92065735 2.45198242 -13.07485962 2.42724609 C-8.38310149 2.28916515 -3.69150246 2.14649987 1 2 C0.505 1.01 0.505 1.01 0 0 Z " fill="#484848" transform="translate(190,294)"/>
<path d="M0 0 C1.32 0 2.64 0 4 0 C4 26.4 4 52.8 4 80 C2.02 80.495 2.02 80.495 0 81 C0 54.27 0 27.54 0 0 Z " fill="#808080" transform="translate(217,306)"/>
<path d="M0 0 C2.31 0 4.62 0 7 0 C7 23.43 7 46.86 7 71 C3.535 71.495 3.535 71.495 0 72 C0 48.24 0 24.48 0 0 Z M2 1 C2 23.77 2 46.54 2 70 C3.98 69.505 3.98 69.505 6 69 C6 46.89 6 24.78 6 2 C4.68 1.67 3.36 1.34 2 1 Z " fill="#2D2D2D" transform="translate(227,308)"/>
<path d="M0 0 C1.1446875 0.2475 1.1446875 0.2475 2.3125 0.5 C5.03596236 1.09145396 5.03596236 1.09145396 8 1 C9.20244106 3.40488211 9.06862279 4.89050031 9 7.5625 C8.96214574 9.04118221 8.95370827 10.52155788 9 12 C10.66342837 13.66342837 12.7825709 13.36048097 15.0625 13.5625 C15.98160156 13.64628906 16.90070313 13.73007812 17.84765625 13.81640625 C18.55792969 13.87699219 19.26820313 13.93757813 20 14 C20.98150241 16.94450722 21.1613058 18.93518979 21 22 C20 23 20 23 17.71484375 23.09765625 C16.34005859 23.08025391 16.34005859 23.08025391 14.9375 23.0625 C14.01839844 23.05347656 13.09929687 23.04445313 12.15234375 23.03515625 C11.44207031 23.02355469 10.73179687 23.01195312 10 23 C10.33 23.66 10.66 24.32 11 25 C11.68707031 25 12.37414062 25 13.08203125 25 C16.72135417 25 20.36067708 25 24 25 C21.30898766 27.69101234 19.80924054 27.29887549 16.0625 27.3125 C14.47115234 27.33763672 14.47115234 27.33763672 12.84765625 27.36328125 C10 27 10 27 8.12109375 25.48046875 C7.75113281 24.99191406 7.38117188 24.50335938 7 24 C6.34 24.66 5.68 25.32 5 26 C2.875 25.625 2.875 25.625 1 25 C1.66 24.67 2.32 24.34 3 24 C2.66628306 20.21787473 1.94547315 18.9376836 -0.625 16 C-3 13 -3 13 -3.0625 10.375 C-1.81719711 7.59138178 -0.21068927 6.07252119 2 4 C2.33 3.01 2.66 2.02 3 1 C2.01 0.67 1.02 0.34 0 0 Z M4 4 C0.0918396 7.72366242 0.0918396 7.72366242 -1.1875 12.6875 C0.48699386 15.94835646 2.68080329 16.65819708 6 18 C6.99 17.01 7.98 16.02 9 15 C8.01 11.37 7.02 7.74 6 4 C5.34 4 4.68 4 4 4 Z M13 15 C12.34 15.66 11.68 16.32 11 17 C11.3185177 19.10820797 11.3185177 19.10820797 12 21 C14.31 21 16.62 21 19 21 C19.33 19.68 19.66 18.36 20 17 C17.04622502 14.63019987 17.04622502 14.63019987 13 15 Z " fill="#1F1F1F" transform="translate(200,400)"/>
<path d="M0 0 C3.057952 1.73559438 5.63379989 3.38472619 8 6 C8 5.34 8 4.68 8 4 C8.99 4 9.98 4 11 4 C11 6.64 11 9.28 11 12 C11.66 12 12.32 12 13 12 C12.67 13.32 12.34 14.64 12 16 C9.73020335 16.10794277 7.45894804 16.18556176 5.1875 16.25 C3.92292969 16.29640625 2.65835938 16.3428125 1.35546875 16.390625 C-2 16 -2 16 -3.9375 14.21875 C-5.43110085 11.09975998 -5.1964639 8.40537419 -5 5 C-4.34 5 -3.68 5 -3 5 C-3 4.01 -3 3.02 -3 2 C-2.01 1.34 -1.02 0.68 0 0 Z M0 7 C0.33 8.32 0.66 9.64 1 11 C1.99 10.67 2.98 10.34 4 10 C3.34 10 2.68 10 2 10 C2 9.01 2 8.02 2 7 C1.34 7 0.68 7 0 7 Z " fill="#E7E7E7" transform="translate(244,410)"/>
<path d="M0 0 C4.29 0 8.58 0 13 0 C16 3 16 3 16.36328125 4.97265625 C16.22222222 10.77777778 16.22222222 10.77777778 14 13 C14.26567215 15.65672147 14.93243243 16.91683991 16.625 19 C18 21 18 21 17.6875 23.25 C17.460625 23.8275 17.23375 24.405 17 25 C14 24 14 24 12.71875 21.96875 C11.90625 20.32291667 11.09375 18.67708333 10.28125 17.03125 C9.09854192 14.68079962 9.09854192 14.68079962 6 14 C6 13.01 6 12.02 6 11 C7.98 10.67 9.96 10.34 12 10 C12 7.69 12 5.38 12 3 C9.03 2.67 6.06 2.34 3 2 C3 9.92 3 17.84 3 26 C2.01 26 1.02 26 0 26 C0 17.42 0 8.84 0 0 Z " fill="#DEDEDE" transform="translate(333,401)"/>
<path d="M0 0 C22.02640819 -0.1109084 43.9942125 -0.08627755 66 1 C66 2.65 66 4.3 66 6 C62.45228817 7.77385592 58.12152152 7.03353145 54.20507812 6.9609375 C49.70954689 6.9105674 45.43039033 7.10834912 41 8 C38.62706021 10.37293979 38.34839715 11.82551654 37.52734375 15.05078125 C37.26759766 16.05947266 37.00785156 17.06816406 36.74023438 18.10742188 C36.47533203 19.16509766 36.21042969 20.22277344 35.9375 21.3125 C35.5343457 22.88161133 35.5343457 22.88161133 35.12304688 24.48242188 C33.97672433 28.97337628 32.8774958 33.44782968 32 38 C31.67 38 31.34 38 31 38 C30.58562309 31.54112519 32.11254511 25.99748704 33.875 19.8125 C34.14441406 18.82830078 34.41382813 17.84410156 34.69140625 16.83007812 C35.86908134 12.60480971 37.02660999 8.94678002 39 5 C47.58 5 56.16 5 65 5 C65 4.01 65 3.02 65 2 C43.55 2 22.1 2 0 2 C0 1.34 0 0.68 0 0 Z " fill="#404040" transform="translate(309,297)"/>
<path d="M0 0 C0.99 0 1.98 0 3 0 C3.33 6.93 3.66 13.86 4 21 C6.97 21 9.94 21 13 21 C13 14.4 13 7.8 13 1 C14.32 1 15.64 1 17 1 C17.11638036 4.24969769 17.18730581 7.4988583 17.25 10.75 C17.28351563 11.67039062 17.31703125 12.59078125 17.3515625 13.5390625 C17.44931292 20.28384161 17.44931292 20.28384161 15.3359375 23.65234375 C12.35979978 25.36934628 10.75603056 25.27272114 7.375 24.8125 C6.41335938 24.69519531 5.45171875 24.57789063 4.4609375 24.45703125 C2 24 2 24 0 23 C0 15.41 0 7.82 0 0 Z " fill="#F1F1F1" transform="translate(311,401)"/>
<path d="M0 0 C0.89203125 0.01804687 1.7840625 0.03609375 2.703125 0.0546875 C3.71632813 0.08949219 3.71632813 0.08949219 4.75 0.125 C4.75 0.455 4.75 0.785 4.75 1.125 C0.295 1.62 0.295 1.62 -4.25 2.125 C-4.25 4.105 -4.25 6.085 -4.25 8.125 C-3.63511719 8.17398437 -3.02023437 8.22296875 -2.38671875 8.2734375 C-1.57847656 8.34820312 -0.77023437 8.42296875 0.0625 8.5 C0.86300781 8.56960938 1.66351563 8.63921875 2.48828125 8.7109375 C4.75 9.125 4.75 9.125 7.75 11.125 C8.078125 13.91015625 8.078125 13.91015625 8 17.1875 C7.98453125 18.27160156 7.9690625 19.35570312 7.953125 20.47265625 C7.75 23.125 7.75 23.125 6.75 24.125 C4.81791163 24.30330165 2.87728628 24.39293417 0.9375 24.4375 C-0.64998047 24.49357422 -0.64998047 24.49357422 -2.26953125 24.55078125 C-5.92022083 24.02925417 -7.05161539 23.02981995 -9.25 20.125 C-9.5 17.375 -9.5 17.375 -9.25 15.125 C-7.93 15.125 -6.61 15.125 -5.25 15.125 C-4.92 16.775 -4.59 18.425 -4.25 20.125 C-1.28 20.125 1.69 20.125 4.75 20.125 C4.75 17.815 4.75 15.505 4.75 13.125 C3.90695312 13.08761719 3.06390625 13.05023438 2.1953125 13.01171875 C1.09960938 12.94597656 0.00390625 12.88023437 -1.125 12.8125 C-2.21554687 12.75449219 -3.30609375 12.69648438 -4.4296875 12.63671875 C-5.36039062 12.46785156 -6.29109375 12.29898437 -7.25 12.125 C-9.6794516 8.4808226 -9.41179575 6.41258728 -9.25 2.125 C-6.03817851 0.21891902 -3.71117397 -0.09766247 0 0 Z " fill="#E2E2E2" transform="translate(363.25,401.875)"/>
<path d="M0 0 C5.47446825 1.82482275 8.21956353 7.15740649 11 12 C12.76860452 17.23600022 14 22.45858269 14 28 C-9.1 28 -32.2 28 -56 28 C-56 27.34 -56 26.68 -56 26 C-58.31 25.67 -60.62 25.34 -63 25 C-63 24.34 -63 23.68 -63 23 C-59.28400809 22.79913557 -58.22791555 22.8480563 -55 25 C-52.44072323 25.31657867 -49.98367565 25.51403681 -47.4140625 25.62109375 C-46.23984238 25.67770424 -46.23984238 25.67770424 -45.04190063 25.73545837 C-33.8263899 26.21350164 -22.59781813 26.10608216 -11.375 26.0625 C-9.09635516 26.05747024 -6.81770923 26.05290997 -4.5390625 26.04882812 C0.97398255 26.03795038 6.48698598 26.02133152 12 26 C10.56172845 18.37208788 9.35152326 12.25463319 4.3125 6.25 C3.50425781 5.26515625 2.69601562 4.2803125 1.86328125 3.265625 C0.94095703 2.14414062 0.94095703 2.14414062 0 1 C0 0.67 0 0.34 0 0 Z " fill="#393939" transform="translate(279,271)"/>
<path d="M0 0 C-2.85323016 0.84792306 -4.1446204 0.97447875 -7.1875 0.4375 C-11.86047369 -0.09874288 -15.69624251 -0.03007429 -20 2 C-22.25097868 4.3909359 -23.56539199 7.06625144 -25 10 C-25.93173506 11.66989635 -26.86914213 13.33664197 -27.8125 15 C-28.54383095 16.33214746 -29.27380859 17.66504388 -30 19 C-28.68 18.34 -27.36 17.68 -26 17 C-21.40774487 25.261959 -21.40774487 25.261959 -22 30 C-24.25 30.375 -24.25 30.375 -27 30 C-27.86625 28.6078125 -27.86625 28.6078125 -28.75 27.1875 C-31.48169517 23.3175985 -33.34390908 22.85521467 -37.78125 21.73828125 C-40 21 -40 21 -41.921875 19.4375 C-45.98633172 16.62599611 -51.25355646 17.62927906 -56 18 C-58.74565085 18.51071725 -61.31236848 19.21814356 -64 20 C-64.99 20 -65.98 20 -67 20 C-59.60650516 14.90670356 -53.90843266 14.16311387 -45 15 C-41.625 16.9375 -41.625 16.9375 -39 19 C-35.26774656 19.79682803 -35.26774656 19.79682803 -32 20 C-31.7421875 19.13890625 -31.484375 18.2778125 -31.21875 17.390625 C-29.96135114 13.8924769 -28.3939794 10.94408391 -26.5 7.75 C-25.58734375 6.19539063 -25.58734375 6.19539063 -24.65625 4.609375 C-21.5582788 -0.27139095 -18.46185138 -1.15557268 -13.04296875 -2.6015625 C-8.24605643 -3.22965628 -4.38660014 -1.85550331 0 0 Z M-31 20 C-29.4722133 23.43752007 -27.49818944 26.18953688 -25 29 C-24.34 29 -23.68 29 -23 29 C-23.57363911 25.12793601 -25.34105893 22.81534937 -28 20 C-28.99 20 -29.98 20 -31 20 Z " fill="#313131" transform="translate(268,71)"/>
<path d="M0 0 C4.95 0 9.9 0 15 0 C15 0.66 15 1.32 15 2 C11.37 2 7.74 2 4 2 C4 8.27 4 14.54 4 21 C7.63 21 11.26 21 15 21 C15 22.32 15 23.64 15 25 C12.68756208 25.02685412 10.3750373 25.04632841 8.0625 25.0625 C6.77472656 25.07410156 5.48695313 25.08570313 4.16015625 25.09765625 C1 25 1 25 0 24 C-0.08726223 22.21928754 -0.10699041 20.4351686 -0.09765625 18.65234375 C-0.09443359 17.57275391 -0.09121094 16.49316406 -0.08789062 15.38085938 C-0.07951172 14.24455078 -0.07113281 13.10824219 -0.0625 11.9375 C-0.05798828 10.79732422 -0.05347656 9.65714844 -0.04882812 8.48242188 C-0.0369976 5.65492582 -0.0190615 2.82745655 0 0 Z " fill="#D1D1D1" transform="translate(168,401)"/>
<path d="M0 0 C2.33294775 -0.04241723 4.66702567 -0.04092937 7 0 C9.29285186 2.29285186 8.18537057 7.79583793 8.1875 10.875 C8.19974609 11.79925781 8.21199219 12.72351563 8.22460938 13.67578125 C8.22750977 15.00802734 8.22750977 15.00802734 8.23046875 16.3671875 C8.23457764 17.18300293 8.23868652 17.99881836 8.24291992 18.83935547 C8 21 8 21 6 24 C3.50390625 24.3984375 3.50390625 24.3984375 0.5625 24.375 C-0.88962891 24.38660156 -0.88962891 24.38660156 -2.37109375 24.3984375 C-5.44149926 23.93308629 -6.13448985 23.41547572 -8 21 C-8.34057617 18.9152832 -8.34057617 18.9152832 -8.29296875 16.55078125 C-8.28330078 15.70322266 -8.27363281 14.85566406 -8.26367188 13.98242188 C-8.23853516 13.10134766 -8.21339844 12.22027344 -8.1875 11.3125 C-8.17396484 10.41982422 -8.16042969 9.52714844 -8.14648438 8.60742188 C-8.11114079 6.40433834 -8.06180493 4.20247418 -8 2 C-7.01 2 -6.02 2 -5 2 C-4.67 7.94 -4.34 13.88 -4 20 C-1.36 20 1.28 20 4 20 C4.33 13.73 4.66 7.46 5 1 C3.35 1 1.7 1 0 1 C0 0.67 0 0.34 0 0 Z " fill="#E3E3E3" transform="translate(297,402)"/>
<path d="M0 0 C3 2 3 2 3.6875 4.625 C3.8421875 5.800625 3.8421875 5.800625 4 7 C4.60328125 7.04898437 5.2065625 7.09796875 5.828125 7.1484375 C7.02695313 7.26058594 7.02695313 7.26058594 8.25 7.375 C9.03890625 7.44460938 9.8278125 7.51421875 10.640625 7.5859375 C13.12085981 8.0212105 14.85982375 8.68369691 17 10 C18.49297212 12.98594424 18.11755228 15.70853624 18 19 C16.70280625 21.59438751 15.67964831 21.95586118 13 23 C10.421875 23.1953125 10.421875 23.1953125 7.75 23.125 C6.85796875 23.10695313 5.9659375 23.08890625 5.046875 23.0703125 C4.37140625 23.04710937 3.6959375 23.02390625 3 23 C2.67 22.01 2.34 21.02 2 20 C5.3 19.67 8.6 19.34 12 19 C12 16.69 12 14.38 12 12 C11.30132812 11.95101563 10.60265625 11.90203125 9.8828125 11.8515625 C8.97273437 11.77679688 8.06265625 11.70203125 7.125 11.625 C6.22007812 11.55539062 5.31515625 11.48578125 4.3828125 11.4140625 C2 11 2 11 0 9 C-0.1953125 6.8359375 -0.1953125 6.8359375 -0.125 4.375 C-0.10695312 3.55773437 -0.08890625 2.74046875 -0.0703125 1.8984375 C-0.04710937 1.27195312 -0.02390625 0.64546875 0 0 Z " fill="#D1D1D1" transform="translate(208,403)"/>
<path d="M0 0 C0.99 0 1.98 0 3 0 C3 3.3 3 6.6 3 10 C7.62447428 7.68776286 8.36006129 6.0393431 10.65625 1.6796875 C11.0996875 1.12539063 11.543125 0.57109375 12 0 C13.32 0 14.64 0 16 0 C15.57879688 4.4331628 12.49672219 6.74033772 9.5 9.6875 C6.03227034 13.24240263 3.30839944 16.12028616 2.8125 21.25 C2.874375 22.4875 2.93625 23.725 3 25 C2.01 25 1.02 25 0 25 C0 16.75 0 8.5 0 0 Z " fill="#EEEEEE" transform="translate(187,401)"/>
<path d="M0 0 C5.28 0 10.56 0 16 0 C16 0.66 16 1.32 16 2 C14.02 2 12.04 2 10 2 C10 9.59 10 17.18 10 25 C8.68 24.67 7.36 24.34 6 24 C6 16.74 6 9.48 6 2 C4.02 2 2.04 2 0 2 C0 1.34 0 0.68 0 0 Z " fill="#DDDDDD" transform="translate(269,401)"/>
<path d="M0 0 C1.93719378 -0.05406122 3.87481921 -0.09282025 5.8125 -0.125 C6.89144531 -0.14820313 7.97039062 -0.17140625 9.08203125 -0.1953125 C12 0 12 0 15 2 C15.2578125 4.06640625 15.2578125 4.06640625 15.125 6.5625 C14.97521479 10.86882475 15.28272281 14.84200298 15.9765625 19.08984375 C16 21 16 21 14 24 C13.95101563 23.21753906 13.90203125 22.43507813 13.8515625 21.62890625 C13.73941406 20.11103516 13.73941406 20.11103516 13.625 18.5625 C13.55539062 17.55316406 13.48578125 16.54382813 13.4140625 15.50390625 C13.27742188 14.67761719 13.14078125 13.85132813 13 13 C10.10637351 11.55318676 7.1916991 11.56757624 3.99609375 11.28125 C2 11 2 11 1 10 C0.95834237 8.00043389 0.95834237 5.99956611 1 4 C1 3.67 1 3.34 1 3 C0.34 2.67 -0.32 2.34 -1 2 C-0.67 1.34 -0.34 0.68 0 0 Z M2 4 C2.33 5.98 2.66 7.96 3 10 C4.98 9.67 6.96 9.34 9 9 C9.33 8.01 9.66 7.02 10 6 C9.67 5.34 9.34 4.68 9 4 C6.69 4 4.38 4 2 4 Z " fill="#6C6C6C" transform="translate(357,400)"/>
<path d="M0 0 C9.9609375 -0.1953125 9.9609375 -0.1953125 13 0 C15 2 15 2 15.1953125 4.1640625 C15.17210937 4.97617187 15.14890625 5.78828125 15.125 6.625 C15.10695312 7.44226563 15.08890625 8.25953125 15.0703125 9.1015625 C15.03550781 10.04128906 15.03550781 10.04128906 15 11 C14.34 10.67 13.68 10.34 13 10 C12.59270772 7.67843403 12.25561323 5.3431213 12 3 C9.03 2.67 6.06 2.34 3 2 C3 9.59 3 17.18 3 25 C2.01 25 1.02 25 0 25 C0 16.75 0 8.5 0 0 Z " fill="#F0F0F0" transform="translate(147,401)"/>
<path d="M0 0 C0.99 0.33 1.98 0.66 3 1 C3 9.25 3 17.5 3 26 C2.34 25.67 1.68 25.34 1 25 C1 23.68 1 22.36 1 21 C0.67 21.99 0.34 22.98 0 24 C-4.04082881 27.63674593 -8.32136968 27.35606605 -13.4765625 27.3984375 C-16.35088119 26.94459771 -17.22864392 26.24688791 -19 24 C-18.09636719 24.10699219 -17.19273437 24.21398437 -16.26171875 24.32421875 C-15.08222656 24.44410156 -13.90273438 24.56398438 -12.6875 24.6875 C-10.92986328 24.87892578 -10.92986328 24.87892578 -9.13671875 25.07421875 C-6.01581237 25.32378843 -6.01581237 25.32378843 -4.20703125 23.51953125 C-3.80871094 23.01808594 -3.41039062 22.51664062 -3 22 C-2.34 22 -1.68 22 -1 22 C-1.00785522 21.10692139 -1.00785522 21.10692139 -1.01586914 20.19580078 C-1.03661999 17.50554453 -1.04965407 14.81530511 -1.0625 12.125 C-1.07087891 11.18785156 -1.07925781 10.25070312 -1.08789062 9.28515625 C-1.09272461 7.94130859 -1.09272461 7.94130859 -1.09765625 6.5703125 C-1.10551147 5.32918701 -1.10551147 5.32918701 -1.11352539 4.06298828 C-1 2 -1 2 0 0 Z " fill="#1B1B1B" transform="translate(330,400)"/>
<path d="M0 0 C5.28 0 10.56 0 16 0 C16 0.66 16 1.32 16 2 C14.02 2 12.04 2 10 2 C10 9.26 10 16.52 10 24 C9.01 24.33 8.02 24.66 7 25 C7 17.41 7 9.82 7 2 C4.69 2 2.38 2 0 2 C0 1.34 0 0.68 0 0 Z " fill="#E8E8E8" transform="translate(127,401)"/>
<path d="M0 0 C1.65 0 3.3 0 5 0 C5.33 7.59 5.66 15.18 6 23 C5.01 22.01 4.02 21.02 3 20 C1.35 21.65 -0.3 23.3 -2 25 C-1.505 23.515 -1.505 23.515 -1 22 C-0.92994564 20.38419623 -0.91562577 18.76561126 -0.9375 17.1484375 C-0.94523437 16.21515625 -0.95296875 15.281875 -0.9609375 14.3203125 C-0.97382813 13.34835937 -0.98671875 12.37640625 -1 11.375 C-1.02538991 9.44536707 -1.04646343 7.51567082 -1.0625 5.5859375 C-1.07410156 4.7304834 -1.08570313 3.8750293 -1.09765625 2.99365234 C-1 1 -1 1 0 0 Z M3 1 C4 4 4 4 4 4 Z " fill="#262626" transform="translate(305,401)"/>
<path d="M0 0 C2.97 0 5.94 0 9 0 C9 0.66 9 1.32 9 2 C6.69 2 4.38 2 2 2 C2 3.98 2 5.96 2 8 C3.65 7.34 5.3 6.68 7 6 C7.99 7.485 7.99 7.485 9 9 C7.02 9 5.04 9 3 9 C3 9.99 3 10.98 3 12 C3.61875 12.061875 4.2375 12.12375 4.875 12.1875 C7 13 7 13 8.25 15.5625 C8.4975 16.366875 8.745 17.17125 9 18 C8.34 18 7.68 18 7 18 C6.67 16.68 6.34 15.36 6 14 C4.68 14 3.36 14 2 14 C2.020625 15.27875 2.04125 16.5575 2.0625 17.875 C2.125 21.75 2.125 21.75 1 24 C-0.32 23.67 -1.64 23.34 -3 23 C-2.01 23 -1.02 23 0 23 C0 15.41 0 7.82 0 0 Z " fill="#2F2F2F" transform="translate(150,403)"/>
<path d="M0 0 C0 0.99 0 1.98 0 3 C-2.35953094 5.35953094 -3.77895617 5.49141413 -7 6 C-7.33516593 10.88905081 -6.43895554 13.77227143 -4.125 18.0625 C-0.05995586 25.69182197 -0.05995586 25.69182197 1 29 C0.67 29.99 0.34 30.98 0 32 C-1.65 31.67 -3.3 31.34 -5 31 C-4.67 30.01 -4.34 29.02 -4 28 C-3.34 28 -2.68 28 -2 28 C-2.4495045 26.68445015 -2.90989716 25.37261642 -3.375 24.0625 C-3.63023437 23.33160156 -3.88546875 22.60070312 -4.1484375 21.84765625 C-4.85271413 19.81317884 -4.85271413 19.81317884 -7 19 C-9.25797144 14.57090218 -10.78704431 11.05957058 -10 6 C-7.30654915 2.27060651 -4.36041851 1.18920505 0 0 Z " fill="#555555" transform="translate(273,103)"/>
<path d="M0 0 C2.38048143 0.94692168 3.7192434 1.49929901 4.99414062 3.77294922 C7.14421697 10.77655336 8.01803293 17.73969464 8.81640625 25.00390625 C9.48314953 30.52944542 10.38067831 35.05976036 13 40 C15.0351761 41.4818964 15.0351761 41.4818964 17 42 C15.35 42 13.7 42 12 42 C7.65679624 34.72420567 6.53803458 27.28252597 5.25 19 C5.02853811 17.63912801 4.80589109 16.27844834 4.58203125 14.91796875 C4.04303334 11.61367722 3.51606869 8.30793657 3 5 C1.68 4.67 0.36 4.34 -1 4 C-0.67 2.68 -0.34 1.36 0 0 Z " fill="#333333" transform="translate(198,137)"/>
<path d="M0 0 C2.97 0 5.94 0 9 0 C10 1 10 1 10.125 4.5 C10 8 10 8 9 9 C7.00041636 9.04080783 4.99954746 9.04254356 3 9 C3 9.99 3 10.98 3 12 C3.99 12.33 4.98 12.66 6 13 C5.360625 13.165 4.72125 13.33 4.0625 13.5 C1.83880759 14.781786 1.83880759 14.781786 1.51171875 16.9140625 C1.2724022 18.93575155 1.13106972 20.96841939 1 23 C0.67 23 0.34 23 0 23 C0 15.41 0 7.82 0 0 Z M2 2 C2 3.98 2 5.96 2 8 C3.98 7.67 5.96 7.34 8 7 C8 5.35 8 3.7 8 2 C4.95086772 0.98888907 4.95086772 0.98888907 2 2 Z " fill="#434343" transform="translate(336,403)"/>
<path d="M0 0 C3.63 0 7.26 0 11 0 C12.99827062 9.99135308 12.36386336 20.22276904 7 29 C6.29094062 30.98536627 5.60578253 32.98072489 5 35 C4.34 35 3.68 35 3 35 C3.94281051 30.28594747 6.07109631 25.99050792 8.09375 21.65625 C9.14327496 18.58005614 9.16490454 16.17757976 9.0625 12.9375 C8.95877473 9.36123295 9.10005814 6.4484498 10 3 C8.41727399 1.41727399 6.61965997 1.65264253 4.4375 1.4375 C3.61121094 1.35371094 2.78492188 1.26992187 1.93359375 1.18359375 C1.29550781 1.12300781 0.65742188 1.06242188 0 1 C0 0.67 0 0.34 0 0 Z " fill="#3A3A3A" transform="translate(216,179)"/>
<path d="M0 0 C1.14372711 4.57490843 0.38075895 7.63336975 -0.75 12.0625 C-0.9346582 12.8145874 -1.11931641 13.5666748 -1.30957031 14.34155273 C-2.7736389 20.25408879 -4.32996055 26.14221012 -6 32 C-6.66 32 -7.32 32 -8 32 C-8.69640673 29.87790224 -9.38188357 27.75221473 -10.0625 25.625 C-10.44535156 24.44164062 -10.82820313 23.25828125 -11.22265625 22.0390625 C-12 19 -12 19 -11 17 C-9.68 19.97 -8.36 22.94 -7 26 C-4.69 17.42 -2.38 8.84 0 0 Z " fill="#292929" transform="translate(291,310)"/>
<path d="M0 0 C1.98 0 3.96 0 6 0 C5.67 1.32 5.34 2.64 5 4 C5 3.34 5 2.68 5 2 C4.01 2 3.02 2 2 2 C2.00523682 2.69150146 2.01047363 3.38300293 2.01586914 4.09545898 C2.036575 7.20946352 2.04963963 10.32345361 2.0625 13.4375 C2.07087891 14.52611328 2.07925781 15.61472656 2.08789062 16.73632812 C2.09111328 17.77080078 2.09433594 18.80527344 2.09765625 19.87109375 C2.10289307 20.82943115 2.10812988 21.78776855 2.11352539 22.77514648 C2 25 2 25 1 26 C-0.99958364 26.04080783 -3.00045254 26.04254356 -5 26 C-5 25.01 -5 24.02 -5 23 C-2.525 23.99 -2.525 23.99 0 25 C0 16.75 0 8.5 0 0 Z " fill="#484848" transform="translate(211,302)"/>
<path d="M0 0 C0.66 0 1.32 0 2 0 C2.19682269 3.43703301 2.38085152 6.87463427 2.5625 10.3125 C2.61857422 11.28896484 2.67464844 12.26542969 2.73242188 13.27148438 C2.78076172 14.20927734 2.82910156 15.14707031 2.87890625 16.11328125 C2.94960327 17.40939331 2.94960327 17.40939331 3.02172852 18.73168945 C3 21 3 21 2 24 C-0.0625 24.6875 -0.0625 24.6875 -2 25 C-1.65775391 26.13888672 -1.65775391 26.13888672 -1.30859375 27.30078125 C-1.02113281 28.29464844 -0.73367188 29.28851563 -0.4375 30.3125 C-0.14746094 31.29863281 0.14257812 32.28476563 0.44140625 33.30078125 C1 36 1 36 0 39 C-2.62875405 33.62819824 -3.6083965 28.95507399 -4 23 C-2.35 23 -0.7 23 1 23 C0.89171875 22.01773438 0.89171875 22.01773438 0.78125 21.015625 C0.06648747 13.98712682 -0.11091604 7.06165482 0 0 Z " fill="#333333" transform="translate(270,164)"/>
<path d="M0 0 C5.28 0 10.56 0 16 0 C17 7 17 7 15 10 C15 7.36 15 4.72 15 2 C10.38 2 5.76 2 1 2 C0.09325555 7.44046671 0.04658622 9.36771038 1.4375 14.375 C1.72496094 15.43460937 2.01242187 16.49421875 2.30859375 17.5859375 C2.53675781 18.38257813 2.76492188 19.17921875 3 20 C2.34 20.33 1.68 20.66 1 21 C0.86722656 20.43410156 0.73445313 19.86820312 0.59765625 19.28515625 C0.42105469 18.55167969 0.24445313 17.81820313 0.0625 17.0625 C-0.11152344 16.33160156 -0.28554688 15.60070312 -0.46484375 14.84765625 C-0.83887569 13.00030102 -0.83887569 13.00030102 -2 12 C-2.35820896 4.71641791 -2.35820896 4.71641791 0 0 Z " fill="#515151" transform="translate(314,302)"/>
<path d="M0 0 C1.1446875 0.2475 1.1446875 0.2475 2.3125 0.5 C5.03596236 1.09145396 5.03596236 1.09145396 8 1 C9.20244106 3.40488211 9.06862279 4.89050031 9 7.5625 C8.96214574 9.04118221 8.95370827 10.52155788 9 12 C10.66342837 13.66342837 12.7825709 13.36048097 15.0625 13.5625 C15.98160156 13.64628906 16.90070313 13.73007812 17.84765625 13.81640625 C18.55792969 13.87699219 19.26820313 13.93757813 20 14 C20 14.99 20 15.98 20 17 C14.06 16.01 14.06 16.01 8 15 C6 7.375 6 7.375 6 4 C5.2575 4.804375 4.515 5.60875 3.75 6.4375 C1.24695171 8.76988591 0.2819045 9.63534394 -3 10 C-1.73046875 8.53515625 -0.4609375 7.0703125 0.80859375 5.60546875 C2.20871231 3.89287029 2.20871231 3.89287029 3 1 C2.01 0.67 1.02 0.34 0 0 Z " fill="#232323" transform="translate(200,400)"/>
<path d="M0 0 C7.75 -0.125 7.75 -0.125 10 1 C10 3.31 10 5.62 10 8 C7.01787087 9.49106457 4.28390342 9.11941467 1 9 C0 8 0 8 -0.09765625 6.15234375 C-0.06510417 4.1015625 -0.03255208 2.05078125 0 0 Z M5 2 C4.67 2.66 4.34 3.32 4 4 C4.33 4.99 4.66 5.98 5 7 C6.32 6.67 7.64 6.34 9 6 C9 4.68 9 3.36 9 2 C7.68 2 6.36 2 5 2 Z " fill="#2B2B2B" transform="translate(358,414)"/>
<path d="M0 0 C2.90347684 1.45173842 2.9809117 3.20865836 4 6.25 C5.80986931 11.85389165 6.80662613 17.34905026 7.5078125 23.1875 C7.8541268 25.9794477 7.8541268 25.9794477 9.1171875 28.1875 C10 30 10 30 9 33 C9 32.34 9 31.68 9 31 C8.01 31 7.02 31 6 31 C5.87153687 30.13048706 5.87153687 30.13048706 5.74047852 29.2434082 C5.34912283 26.59957725 4.95582919 23.95603804 4.5625 21.3125 C4.36043945 19.94448242 4.36043945 19.94448242 4.15429688 18.54882812 C4.02216797 17.66259766 3.89003906 16.77636719 3.75390625 15.86328125 C3.63345947 15.05157471 3.5130127 14.23986816 3.38891602 13.40356445 C2.98723908 10.92113544 2.50787223 8.46270121 2 6 C1.34 6 0.68 6 0 6 C0 4.02 0 2.04 0 0 Z " fill="#3B3B3B" transform="translate(279,223)"/>
<path d="M0 0 C0.99 0 1.98 0 3 0 C3 6.6 3 13.2 3 20 C2.01 20 1.02 20 0 20 C0 13.4 0 6.8 0 0 Z " fill="#F9F9F9" transform="translate(325,402)"/>
<path d="M0 0 C1.20849609 -0.00386719 1.20849609 -0.00386719 2.44140625 -0.0078125 C4.4375 0.125 4.4375 0.125 5.4375 1.125 C5.47830783 3.12458364 5.48004356 5.12545254 5.4375 7.125 C4.4475 7.125 3.4575 7.125 2.4375 7.125 C2.4375 5.805 2.4375 4.485 2.4375 3.125 C0.4575 3.125 -1.5225 3.125 -3.5625 3.125 C-3.8925 4.775 -4.2225 6.425 -4.5625 8.125 C-5.2225 8.125 -5.8825 8.125 -6.5625 8.125 C-6.5625 5.815 -6.5625 3.505 -6.5625 1.125 C-4.1828388 -0.0648306 -2.64764265 -0.00849966 0 0 Z " fill="#D9D9D9" transform="translate(247.5625,400.875)"/>
<path d="M0 0 C1.39456452 0.00667256 2.78911118 0.01863093 4.18359375 0.03515625 C4.89451172 0.03966797 5.60542969 0.04417969 6.33789062 0.04882812 C8.09899388 0.06064761 9.86005411 0.07858362 11.62109375 0.09765625 C11.95109375 0.75765625 12.28109375 1.41765625 12.62109375 2.09765625 C7.34109375 2.09765625 2.06109375 2.09765625 -3.37890625 2.09765625 C-3.37890625 2.75765625 -3.37890625 3.41765625 -3.37890625 4.09765625 C-1.06890625 4.09765625 1.24109375 4.09765625 3.62109375 4.09765625 C3.62109375 10.36765625 3.62109375 16.63765625 3.62109375 23.09765625 C3.29109375 23.09765625 2.96109375 23.09765625 2.62109375 23.09765625 C2.56050781 22.12183594 2.49992188 21.14601563 2.4375 20.140625 C2.35371094 18.86832031 2.26992187 17.59601563 2.18359375 16.28515625 C2.10238281 15.02058594 2.02117187 13.75601562 1.9375 12.453125 C1.74924828 9.10583732 1.74924828 9.10583732 0.62109375 6.09765625 C-1.02890625 5.76765625 -2.67890625 5.43765625 -4.37890625 5.09765625 C-4.37890625 0.12655798 -4.37890625 0.12655798 0 0 Z " fill="#2F2F2F" transform="translate(130.37890625,398.90234375)"/>
<path d="M0 0 C1.32 0.33 2.64 0.66 4 1 C3.01 1 2.02 1 1 1 C3.40436026 4.60654039 4.94679607 4.85452932 9 6 C9.042721 7.66611905 9.04063832 9.33382885 9 11 C8 12 8 12 5.4375 12.0625 C4.633125 12.041875 3.82875 12.02125 3 12 C2.49166409 10.75336669 1.99368855 9.50250613 1.5 8.25 C1.2215625 7.55390625 0.943125 6.8578125 0.65625 6.140625 C0 4 0 4 0 0 Z " fill="#151515" transform="translate(172,404)"/>
<path d="M0 0 C4.95 0.99 4.95 0.99 10 2 C6.90944045 4.06037303 6.29073838 4.24799242 2.80395508 4.22705078 C1.96331009 4.22689972 1.1226651 4.22674866 0.25654602 4.22659302 C-0.64666885 4.21627045 -1.54988373 4.20594788 -2.48046875 4.1953125 C-3.87245232 4.19106766 -3.87245232 4.19106766 -5.29255676 4.18673706 C-8.25766879 4.17553836 -11.22247921 4.15043435 -14.1875 4.125 C-16.19726126 4.1149698 -18.20702726 4.10584402 -20.21679688 4.09765625 C-25.14464753 4.07560004 -30.07227262 4.04107229 -35 4 C-35 3.67 -35 3.34 -35 3 C-23.12 2.67 -11.24 2.34 1 2 C0.505 1.01 0.505 1.01 0 0 Z " fill="#010101" transform="translate(190,294)"/>
<path d="M0 0 C0.66 0 1.32 0 2 0 C2 1.32 2 2.64 2 4 C3.98 3.67 5.96 3.34 8 3 C7.67 2.01 7.34 1.02 7 0 C7.99 0 8.98 0 10 0 C10 1.65 10 3.3 10 5 C11.32 5.33 12.64 5.66 14 6 C13.67 6.99 13.34 7.98 13 9 C11.02006459 8.69240822 9.04106401 8.3787932 7.0625 8.0625 C5.96035156 7.88847656 4.85820312 7.71445312 3.72265625 7.53515625 C1 7 1 7 0 6 C-0.04080783 4.00041636 -0.04254356 1.99954746 0 0 Z " fill="#191919" transform="translate(211,404)"/>
<path d="M0 0 C1.32 0 2.64 0 4 0 C3.41463247 3.66060821 1.916761 5.54535164 -0.5625 8.25 C-1.20316406 8.95640625 -1.84382812 9.6628125 -2.50390625 10.390625 C-3.24447266 11.18726563 -3.24447266 11.18726563 -4 12 C-5.65 11.67 -7.3 11.34 -9 11 C-7.88625 9.948125 -7.88625 9.948125 -6.75 8.875 C-3.90093529 6.09291052 -3.90093529 6.09291052 -1.9375 2.6875 C-1.298125 1.800625 -0.65875 0.91375 0 0 Z " fill="#CDCDCD" transform="translate(199,401)"/>
<path d="M0 0 C1.32 0 2.64 0 4 0 C4.33 0.99 4.66 1.98 5 3 C7.97 3.495 7.97 3.495 11 4 C11.66 2.68 12.32 1.36 13 0 C13.042721 1.66611905 13.04063832 3.33382885 13 5 C11.2661021 6.7338979 8.86293764 6.41184841 6.5 6.625 C5.4996875 6.72039062 4.499375 6.81578125 3.46875 6.9140625 C2.6540625 6.94242187 1.839375 6.97078125 1 7 C0 6 0 6 -0.0625 2.9375 C-0.041875 1.968125 -0.02125 0.99875 0 0 Z " fill="#747474" transform="translate(208,417)"/>
<path d="M0 0 C1.32 0.66 2.64 1.32 4 2 C4 3.98 4 5.96 4 8 C2.35 8 0.7 8 -1 8 C-1 6.35 -1 4.7 -1 3 C-3.97 3 -6.94 3 -10 3 C-10 2.67 -10 2.34 -10 2 C-9.04287109 1.90912109 -9.04287109 1.90912109 -8.06640625 1.81640625 C-6.82697266 1.69072266 -6.82697266 1.69072266 -5.5625 1.5625 C-4.73878906 1.48128906 -3.91507813 1.40007812 -3.06640625 1.31640625 C-1.01337975 1.21069185 -1.01337975 1.21069185 0 0 Z " fill="#6F6F6F" transform="translate(222,401)"/>
<path d="M0 0 C3.58790575 0.29899215 4.78166776 0.76986601 7.3125 3.4375 C9 6 9 6 9 8 C2.25 8.125 2.25 8.125 0 7 C0 4.69 0 2.38 0 0 Z M2 2 C2.33 3.32 2.66 4.64 3 6 C3.99 5.67 4.98 5.34 6 5 C5.34 5 4.68 5 4 5 C4 4.01 4 3.02 4 2 C3.34 2 2.68 2 2 2 Z " fill="#393939" transform="translate(242,415)"/>
<path d="M0 0 C0.33 0 0.66 0 1 0 C1.02505615 0.55985596 1.0501123 1.11971191 1.07592773 1.6965332 C1.19203745 4.23541305 1.3146958 6.77393553 1.4375 9.3125 C1.47681641 10.19357422 1.51613281 11.07464844 1.55664062 11.98242188 C1.59853516 12.82998047 1.64042969 13.67753906 1.68359375 14.55078125 C1.72025146 15.33106689 1.75690918 16.11135254 1.79467773 16.9152832 C1.94125263 19.19329101 1.94125263 19.19329101 3 22 C-0.4352048 24.29013653 -1.985331 24.17842973 -6 24 C-4.03617993 22.49440461 -2.21736634 21.10868317 0 20 C0 13.4 0 6.8 0 0 Z " fill="#E4E4E4" transform="translate(324,402)"/>
<path d="M0 0 C2.09782787 2.09782787 2.6509396 3.3799207 3.625 6.125 C4.01558594 7.21167969 4.01558594 7.21167969 4.4140625 8.3203125 C4.70410156 9.15175781 4.70410156 9.15175781 5 10 C5.99 7.69 6.98 5.38 8 3 C9.25127906 6.54667178 8.72285053 8.72253438 7.5625 12.25 C7.27503906 13.14203125 6.98757813 14.0340625 6.69140625 14.953125 C6.46324219 15.62859375 6.23507812 16.3040625 6 17 C3.59032361 14.09083887 2.34602049 11.56302424 1.3125 7.9375 C1.06113281 7.08027344 0.80976563 6.22304688 0.55078125 5.33984375 C0 3 0 3 0 0 Z " fill="#292929" transform="translate(316,325)"/>
<path d="M0 0 C3.23150461 0.96071759 4.75851173 1.69411485 6.875 4.375 C8 7 8 7 7.6875 9.3125 C7.460625 9.869375 7.23375 10.42625 7 11 C3.17330957 7.57611908 1.27721526 4.99275057 0 0 Z " fill="#D9D9D9" transform="translate(196,414)"/>
<path d="M0 0 C0.99 0.33 1.98 0.66 3 1 C3 1.66 3 2.32 3 3 C4.32 3.33 5.64 3.66 7 4 C5.68 4 4.36 4 3 4 C3.33 4.99 3.66 5.98 4 7 C6.64 7.33 9.28 7.66 12 8 C12.66 9.65 13.32 11.3 14 13 C13.34 13 12.68 13 12 13 C11.67 12.01 11.34 11.02 11 10 C7.7 9.67 4.4 9.34 1 9 C0.67 6.03 0.34 3.06 0 0 Z " fill="#000000" transform="translate(172,413)"/>
<path d="M0 0 C0.33 0 0.66 0 1 0 C1.12375 0.969375 1.2475 1.93875 1.375 2.9375 C1.684375 4.4534375 1.684375 4.4534375 2 6 C2.66 6.33 3.32 6.66 4 7 C4 5.68 4 4.36 4 3 C4.66 3.33 5.32 3.66 6 4 C5.35455571 7.48539917 3.89865603 10.02819057 2 13 C0 12 0 12 -1 10 C-0.9129796 8.28766312 -0.75902838 6.57824594 -0.5625 4.875 C-0.46066406 3.96492188 -0.35882813 3.05484375 -0.25390625 2.1171875 C-0.17011719 1.41851562 -0.08632812 0.71984375 0 0 Z " fill="#101010" transform="translate(192,397)"/>
<path d="M0 0 C0.99 0.495 0.99 0.495 2 1 C2 6.28 2 11.56 2 17 C4.64 17 7.28 17 10 17 C9.67 17.66 9.34 18.32 9 19 C2.84765625 19.09765625 2.84765625 19.09765625 1 19 C0 18 0 18 -0.11352539 16.23413086 C-0.10828857 15.48526611 -0.10305176 14.73640137 -0.09765625 13.96484375 C-0.09443359 13.15595703 -0.09121094 12.34707031 -0.08789062 11.51367188 C-0.07951172 10.66353516 -0.07113281 9.81339844 -0.0625 8.9375 C-0.05798828 8.08349609 -0.05347656 7.22949219 -0.04882812 6.34960938 C-0.03700373 4.23304337 -0.01906769 2.11651315 0 0 Z " fill="#292929" transform="translate(292,404)"/>
<path d="M0 0 C0.66 0.33 1.32 0.66 2 1 C1.34 1.66 0.68 2.32 0 3 C-0.46447597 7.92494167 -0.46447597 7.92494167 1.5 12.3125 C1.995 12.869375 2.49 13.42625 3 14 C3 14.66 3 15.32 3 16 C1.68 15.67 0.36 15.34 -1 15 C-1.66 12.03 -2.32 9.06 -3 6 C-3.66 6.99 -4.32 7.98 -5 9 C-5.3125 6.1875 -5.3125 6.1875 -5 3 C-2.625 1.0625 -2.625 1.0625 0 0 Z " fill="#151515" transform="translate(355,401)"/>
<path d="M0 0 C0.66 1.32 1.32 2.64 2 4 C1.34 4 0.68 4 0 4 C0.45375 4.9075 0.9075 5.815 1.375 6.75 C2.58333333 9.16666667 3.79166667 11.58333333 5 14 C2.18060883 11.79020692 -0.53058944 9.59937954 -3 7 C-3.33 8.65 -3.66 10.3 -4 12 C-4.33 12 -4.66 12 -5 12 C-5.35338623 9.03155565 -5.5417682 6.84401782 -3.88671875 4.265625 C-2.64496832 2.79651181 -1.32662082 1.39295186 0 0 Z " fill="#343434" transform="translate(196,410)"/>
<path d="M0 0 C0.33 0 0.66 0 1 0 C1.65651228 5.91607087 1.65651228 5.91607087 -0.03125 8.70263672 C-1.45407431 10.36445105 -2.93691381 11.90705811 -4.5 13.4375 C-5.02464844 13.97826172 -5.54929688 14.51902344 -6.08984375 15.07617188 C-7.37782824 16.39928322 -8.68689444 17.70181609 -10 19 C-10 14.35429766 -6.89331246 12.07560312 -3.9453125 8.66796875 C-1.88373724 5.84054726 -0.93033374 3.35409794 0 0 Z " fill="#444444" transform="translate(215,219)"/>
<path d="M0 0 C1.26026798 2.52053595 0.91874445 3.8542098 0.5625 6.625 C0.40974609 7.85089844 0.40974609 7.85089844 0.25390625 9.1015625 C0.17011719 9.72804687 0.08632812 10.35453125 0 11 C0.99 11.33 1.98 11.66 3 12 C2.67 12.99 2.34 13.98 2 15 C0.0625 14.4375 0.0625 14.4375 -2 13 C-3.22058322 8.76864483 -3.27250173 6.65163458 -1.5625 2.5625 C-1.046875 1.716875 -0.53125 0.87125 0 0 Z " fill="#474747" transform="translate(189,144)"/>
<path d="M0 0 C0.33 0 0.66 0 1 0 C1 2.31 1 4.62 1 7 C1.99 6.67 2.98 6.34 4 6 C4.99 6.66 5.98 7.32 7 8 C6.67 8.66 6.34 9.32 6 10 C4.33333333 10 2.66666667 10 1 10 C1 10.99 1 11.98 1 13 C0.34 13 -0.32 13 -1 13 C-0.814375 12.443125 -0.62875 11.88625 -0.4375 11.3125 C0.15591602 8.96712418 0.15591602 8.96712418 -0.5 6.5 C-1.01964581 3.90177093 -0.82665663 2.4799699 0 0 Z " fill="#797979" transform="translate(240,402)"/>
<path d="M0 0 C0.99 0 1.98 0 3 0 C3.04241723 2.33294775 3.04092937 4.66702567 3 7 C0.95301586 9.04698414 -3.30411241 8.70045693 -6 9 C-6 6.36 -6 3.72 -6 1 C-5.67 1 -5.34 1 -5 1 C-5 2.98 -5 4.96 -5 7 C-3.02 6.67 -1.04 6.34 1 6 C0.67 4.02 0.34 2.04 0 0 Z " fill="#1F1F1F" transform="translate(343,404)"/>
<path d="M0 0 C2 2 2 2 2.875 4.6875 C3.79886593 7.40777191 4.70829927 9.28824658 6.1875 11.6875 C6.785625 12.780625 7.38375 13.87375 8 15 C7.67 15.99 7.34 16.98 7 18 C1.7548844 12.25764102 0.03186223 7.77438419 0 0 Z " fill="#4B4B4B" transform="translate(289,256)"/>
<path d="M0 0 C0.7425 0.680625 0.7425 0.680625 1.5 1.375 C4.89475949 3.58159367 8.04883498 4.14391425 12 5 C12 5.99 12 6.98 12 8 C10.35 8 8.7 8 7 8 C7 7.67 7 7.34 7 7 C5.35 6.67 3.7 6.34 2 6 C1.34 4.02 0.68 2.04 0 0 Z " fill="#575757" transform="translate(273,76)"/>
<path d="M0 0 C0 4.62 0 9.24 0 14 C-0.66 14 -1.32 14 -2 14 C-2 10.7 -2 7.4 -2 4 C-3.32 3.67 -4.64 3.34 -6 3 C-6 2.34 -6 1.68 -6 1 C-4 0 -4 0 0 0 Z " fill="#3C3C3C" transform="translate(192,397)"/>
<path d="M0 0 C2.88844241 1.4442212 3.34835807 3.67152158 4.40234375 6.58984375 C5.42347002 10.70771896 5.23296207 14.78942624 5 19 C4.67 19 4.34 19 4 19 C3.34 14.71 2.68 10.42 2 6 C1.34 6 0.68 6 0 6 C0 4.02 0 2.04 0 0 Z " fill="#5C5C5C" transform="translate(279,223)"/>
<path d="M0 0 C1.27847309 3.61233001 0.71332411 6.04606751 -0.3125 9.6875 C-0.57675781 10.66074219 -0.84101563 11.63398438 -1.11328125 12.63671875 C-2 15 -2 15 -4 16 C-3.6083965 10.04492601 -2.62875405 5.37180176 0 0 Z " fill="#5A5A5A" transform="translate(203,238)"/>
<path d="M0 0 C0.99 0.66 1.98 1.32 3 2 C3.1875 4.625 3.1875 4.625 3 7 C1.68 7 0.36 7 -1 7 C-1.66 5.02 -2.32 3.04 -3 1 C-2.01 1.33 -1.02 1.66 0 2 C0 1.34 0 0.68 0 0 Z " fill="#9B9B9B" transform="translate(162,420)"/>
<path d="M0 0 C1.65 0 3.3 0 5 0 C5 6.27 5 12.54 5 19 C4.67 19 4.34 19 4 19 C3.93941406 18.02417969 3.87882813 17.04835938 3.81640625 16.04296875 C3.73261719 14.77066406 3.64882812 13.49835938 3.5625 12.1875 C3.48128906 10.92292969 3.40007812 9.65835937 3.31640625 8.35546875 C2.96139433 4.59058921 2.6960073 2.6960073 0 0 Z " fill="#575757" transform="translate(129,403)"/>
<path d="M0 0 C0.99 0 1.98 0 3 0 C3 2.31 3 4.62 3 7 C3.66 7.33 4.32 7.66 5 8 C3.68 8.33 2.36 8.66 1 9 C-0.4783226 6.04335481 -0.06032783 3.25770263 0 0 Z " fill="#DEDEDE" transform="translate(239,415)"/>
<path d="M0 0 C1.32 0 2.64 0 4 0 C4 2.31 4 4.62 4 7 C3.01 7 2.02 7 1 7 C0.67 4.69 0.34 2.38 0 0 Z " fill="#DDDDDD" transform="translate(354,417)"/>
<path d="M0 0 C0 0.33 0 0.66 0 1 C-0.99580078 1.09087891 -0.99580078 1.09087891 -2.01171875 1.18359375 C-7.53512662 1.70011785 -7.53512662 1.70011785 -13 2.625 C-15 3 -15 3 -17 2 C-10.83832901 -0.64071614 -6.66502081 -1.17618014 0 0 Z " fill="#C4C4C4" transform="translate(264,71)"/>
<path d="M0 0 C3.63 0.66 7.26 1.32 11 2 C10.67 2.66 10.34 3.32 10 4 C7.03 4 4.06 4 1 4 C0.67 2.68 0.34 1.36 0 0 Z " fill="#F6F6F6" transform="translate(312,421)"/>
<path d="M0 0 C0.33 0 0.66 0 1 0 C1.19412181 1.47831221 1.38012131 2.95769316 1.5625 4.4375 C1.66691406 5.26121094 1.77132813 6.08492188 1.87890625 6.93359375 C1.91886719 7.61550781 1.95882813 8.29742187 2 9 C1 10 1 10 -1.06640625 10.09765625 C-1.89011719 10.08605469 -2.71382813 10.07445312 -3.5625 10.0625 C-4.38878906 10.05347656 -5.21507812 10.04445313 -6.06640625 10.03515625 C-6.70449219 10.02355469 -7.34257812 10.01195312 -8 10 C-8 9.67 -8 9.34 -8 9 C-4.535 8.505 -4.535 8.505 -1 8 C-0.67 5.36 -0.34 2.72 0 0 Z " fill="#F3F3F3" transform="translate(368,415)"/>
<path d="M0 0 C1.98 0 3.96 0 6 0 C6 1.98 6 3.96 6 6 C5.01 6 4.02 6 3 6 C2.814375 5.071875 2.814375 5.071875 2.625 4.125 C2.12802644 1.80879168 2.12802644 1.80879168 0 0 Z " fill="#E5E5E5" transform="translate(247,402)"/>
<path d="M0 0 C1.98 0.495 1.98 0.495 4 1 C3.67 2.32 3.34 3.64 3 5 C1.68 4.67 0.36 4.34 -1 4 C-0.67 2.68 -0.34 1.36 0 0 Z " fill="#DADADA" transform="translate(176,410)"/>
<path d="M0 0 C1.32 0 2.64 0 4 0 C4.41176754 3.60296594 4.1535853 4.78402067 2 7.8125 C1.34 8.534375 0.68 9.25625 0 10 C-0.99 9.67 -1.98 9.34 -3 9 C-2.195625 8.236875 -1.39125 7.47375 -0.5625 6.6875 C2.16799024 4.20569102 2.16799024 4.20569102 3 1 C2.01 0.67 1.02 0.34 0 0 Z " fill="#363636" transform="translate(200,400)"/>
<path d="M0 0 C0.33 1.65 0.66 3.3 1 5 C-0.65 5 -2.3 5 -4 5 C-4 3.68 -4 2.36 -4 1 C-2 0 -2 0 0 0 Z " fill="#878787" transform="translate(273,130)"/>
<path d="M0 0 C0.99 0 1.98 0 3 0 C2.4409112 3.24271506 1.5867822 4.93057424 -1 7 C-1.66 7 -2.32 7 -3 7 C-2.690625 6.401875 -2.38125 5.80375 -2.0625 5.1875 C-0.89790296 2.91043228 -0.89790296 2.91043228 0 0 Z " fill="#E6E6E6" transform="translate(200,401)"/>
<path d="M0 0 C0.99 0.66 1.98 1.32 3 2 C3 2.66 3 3.32 3 4 C1.02 4.33 -0.96 4.66 -3 5 C-3 4.01 -3 3.02 -3 2 C-2.01 1.34 -1.02 0.68 0 0 Z " fill="#F3F3F3" transform="translate(244,410)"/>
<path d="M0 0 C1.485 0.99 1.485 0.99 3 2 C2.67 3.32 2.34 4.64 2 6 C1.01 5.67 0.02 5.34 -1 5 C-0.67 3.35 -0.34 1.7 0 0 Z " fill="#D9D9D9" transform="translate(348,420)"/>
<path d="M0 0 C4.95 0.99 4.95 0.99 10 2 C7 4 7 4 3 4 C3 3.34 3 2.68 3 2 C2.01 1.67 1.02 1.34 0 1 C0 0.67 0 0.34 0 0 Z " fill="#252525" transform="translate(190,294)"/>
<path d="M0 0 C0 3.38023517 -0.87455622 5.83468937 -2 9 C-2.66 9 -3.32 9 -4 9 C-3.66666667 7.66666667 -3.33333333 6.33333333 -3 5 C-2.855625 4.278125 -2.71125 3.55625 -2.5625 2.8125 C-2.376875 2.214375 -2.19125 1.61625 -2 1 C-1.34 0.67 -0.68 0.34 0 0 Z " fill="#6E6E6E" transform="translate(223,205)"/>
<path d="M0 0 C2.26185454 2.26185454 3.03921617 3.96983561 4 7 C3.67 7.99 3.34 8.98 3 10 C3 9.34 3 8.68 3 8 C2.01 7.67 1.02 7.34 0 7 C0 4.69 0 2.38 0 0 Z " fill="#545454" transform="translate(271,203)"/>
<path d="M0 0 C0.99 0.33 1.98 0.66 3 1 C3 2.65 3 4.3 3 6 C2.01 6 1.02 6 0 6 C0 4.02 0 2.04 0 0 Z " fill="#D3D3D3" transform="translate(222,403)"/>
<path d="M0 0 C0.66 0.33 1.32 0.66 2 1 C-1.625 5.875 -1.625 5.875 -5 7 C-3.70700306 4.11562221 -2.34058637 2.12780579 0 0 Z " fill="#CFCFCF" transform="translate(191,105)"/>
<path d="" fill="#000000" transform="translate(0,0)"/>
<path d="" fill="#000000" transform="translate(0,0)"/>
</svg>
